<?xml version="1.0" encoding="UTF-8" standalone="no"?>
<!-- Created with Inkscape (http://www.inkscape.org/) -->

<svg
   width="512"
   height="512"
   viewBox="0 0 512 512"
   version="1.1"
   id="svg5"
   xmlns="http://www.w3.org/2000/svg"
   xmlns:svg="http://www.w3.org/2000/svg">
  <defs
     id="defs2" />
  <g
     id="layer1">
    <path
       style="fill:#000000;stroke:#000000"
       id="path75"
       d="M 420.90929,376.27292 297.55795,349.87487 205.88211,436.52328 192.87049,311.05174 82.133556,250.63866 197.44327,199.49104 220.67993,75.505289 l 84.27694,93.860571 125.09798,-16.21433 -63.2237,109.15664 z"
       transform="matrix(0.42841728,0.74364332,-0.7423039,0.42949509,338.67925,-65.720266)" />
    <path
       style="fill:#2e3436;stroke:#000000"
       id="path75-3"
       d="M 420.90929,376.27292 297.55795,349.87487 205.88211,436.52328 192.87049,311.05174 82.133556,250.63866 197.44327,199.49104 220.67993,75.505289 l 84.27694,93.860571 125.09798,-16.21433 -63.2237,109.15664 z"
       transform="matrix(0.6059417,0.60714282,-0.60612794,0.60732945,242.00421,-76.016192)" />
    <path
       style="fill:#555753;stroke:#000000"
       id="path75-3-5"
       transform="matrix(0.74217218,0.42926648,-0.42864542,0.74377531,152.40123,-49.697963)"
       d="M 420.90929,376.27292 297.55795,349.87487 205.88211,436.52328 192.87049,311.05174 82.133556,250.63866 197.44327,199.49104 220.67993,75.505289 l 84.27694,93.860571 125.09798,-16.21433 -63.2237,109.15664 z" />
    <path
       style="fill:#888a85;stroke:#000000"
       id="path75-3-5-6"
       transform="matrix(0.82782489,0.22213636,-0.22195137,0.82953414,88.813102,-3.6607098)"
       d="M 420.90929,376.27292 297.55795,349.87487 205.88211,436.52328 192.87049,311.05174 82.133556,250.63866 197.44327,199.49104 220.67993,75.505289 l 84.27694,93.860571 125.09798,-16.21433 -63.2237,109.15664 z" />
    <path
       style="fill:#babdb6;stroke:#000000"
       id="path75-3-5-6-3"
       transform="matrix(0.85706267,-1.320015e-4,-1.3170654e-4,0.85876154,36.618498,36.185165)"
       d="M 420.90929,376.27292 297.55795,349.87487 205.88211,436.52328 192.87049,311.05174 82.133556,250.63866 197.44327,199.49104 220.67993,75.505289 l 84.27694,93.860571 125.09798,-16.21433 -63.2237,109.15664 z" />
  </g>
</svg>
