<?xml version="1.0" encoding="UTF-8" standalone="no"?>
<!-- Created with Inkscape (http://www.inkscape.org/) -->

<svg
   width="640"
   height="300"
   viewBox="0 0 169.33333 79.375"
   version="1.1"
   id="svg5"
   xmlns="http://www.w3.org/2000/svg"
   xmlns:svg="http://www.w3.org/2000/svg">
  <defs
     id="defs2">
    <clipPath
       clipPathUnits="userSpaceOnUse"
       id="clipPath6179">
      <ellipse
         style="display:none;fill:#222222;fill-opacity:1;stroke:none;stroke-width:4.94866"
         id="ellipse6181"
         cx="26.876253"
         cy="63.5"
         rx="22.68141"
         ry="28.096701" />
      <path
         id="lpe_path-effect6183"
         style="fill:#222222;fill-opacity:1;stroke:none;stroke-width:4.94866"
         class="powerclip"
         d="M 9.5889963,30.403307 H 75.782398 V 96.596708 H 9.5889963 Z M 49.557663,63.5 A 22.68141,28.096701 0 0 0 26.876253,35.403299 22.68141,28.096701 0 0 0 4.1948433,63.5 22.68141,28.096701 0 0 0 26.876253,91.596701 22.68141,28.096701 0 0 0 49.557663,63.5 Z" />
    </clipPath>
    <linearGradient
       id="linearGradient862">
      <stop
         style="stop-color:#ffe6c0;stop-opacity:1;"
         offset="0"
         id="stop860" />
    </linearGradient>
    <clipPath
       clipPathUnits="userSpaceOnUse"
       id="clipPath5170">
      <path
         style="fill:#e9b96e;stroke:#000000;stroke-width:1px;stroke-linecap:butt;stroke-linejoin:miter;stroke-opacity:1"
         d="m 257.72212,95.033157 c -44.22721,84.275933 -44.22721,84.275933 -44.22721,84.275933 l 6.40912,99.05941 -83.42546,13.19263 L 125.00149,181.9151 174.48478,72.114293 Z"
         id="path5172" />
    </clipPath>
    <filter
       style="color-interpolation-filters:sRGB;"
       id="filter10375"
       x="-0.061588257"
       y="-inf"
       width="1.1242295"
       height="inf">
      <feColorMatrix
         values="0.21 0.72 0.072 0 0 0.21 0.72 0.072 0 0 0.21 0.72 0.072 0 0 0 0 0 1 0 "
         id="feColorMatrix10373"
         result="fbSourceGraphic" />
      <feColorMatrix
         result="fbSourceGraphicAlpha"
         in="fbSourceGraphic"
         values="0 0 0 -1 0 0 0 0 -1 0 0 0 0 -1 0 0 0 0 1 0"
         id="feColorMatrix10395" />
      <feColorMatrix
         id="feColorMatrix10397"
         values="0.21 0.72 0.072 0 0 0.21 0.72 0.072 0 0 0.21 0.72 0.072 0 0 0 0 0 1 0 "
         in="fbSourceGraphic" />
    </filter>
  </defs>
  <rect
     style="fill:#f3f3f3;fill-opacity:1;stroke:none;stroke-width:6.01754"
     id="rect846-1"
     width="169.33333"
     height="79.375"
     x="1.7097982e-06"
     y="0" />
  <rect
     style="fill:#ffffff;stroke:#000000;stroke-width:1.18538;stroke-miterlimit:4;stroke-dasharray:none;stroke-opacity:1"
     id="rect1313"
     width="57.705994"
     height="68.352386"
     x="55.813667"
     y="5.5113063" />
  <rect
     style="fill:#ffffff;stroke:#000000;stroke-width:1.32292;stroke-miterlimit:4;stroke-dasharray:none;stroke-opacity:1"
     id="rect1461"
     width="43.19714"
     height="19.130362"
     x="70.322533"
     y="54.73333" />
  <text
     xml:space="preserve"
     style="font-size:14.2875px;line-height:1.25;font-family:sans-serif;stroke-width:0.264583"
     x="71.941498"
     y="68.36235"
     id="text3203"><tspan
       id="tspan3201"
       style="font-style:normal;font-variant:normal;font-weight:bold;font-stretch:normal;font-size:14.2875px;font-family:sans-serif;-inkscape-font-specification:'sans-serif, Bold';font-variant-ligatures:normal;font-variant-caps:normal;font-variant-numeric:normal;font-variant-east-asian:normal;stroke-width:0.264583"
       x="71.941498"
       y="68.36235">www</tspan></text>
  <rect
     style="fill:#d1e1f5;fill-opacity:1;stroke:none;stroke-width:3;stroke-miterlimit:4;stroke-dasharray:none;stroke-dashoffset:0;stroke-opacity:1;filter:url(#filter10375)"
     id="rect95519"
     width="512"
     height="512"
     x="0"
     y="0"
     transform="matrix(0.04019447,0,0,0.04019447,59.965731,10.005681)" />
  <rect
     style="fill:#ffc069;fill-opacity:1;stroke:none;stroke-width:3;stroke-miterlimit:4;stroke-dasharray:none;filter:url(#filter10375)"
     id="rect9222"
     width="29.741756"
     height="56.779716"
     x="225.16106"
     y="231.75395"
     transform="matrix(0.04019447,0,0,0.04019447,59.965731,10.005681)" />
  <g
     id="g9604"
     style="display:inline;fill:#e1a757;fill-opacity:1;filter:url(#filter10375)"
     transform="matrix(0.04019447,0,0,0.02180218,59.965731,14.475112)">
    <path
       style="fill:#e1a757;fill-opacity:1;stroke:none;stroke-width:1.5361px;stroke-linecap:butt;stroke-linejoin:miter;stroke-opacity:1"
       d="m 225.2771,229.99827 c 9.50413,11.16275 19.09598,15.19724 29.72816,3.94693 l -0.1079,9.99528 c -18.26574,7.96153 -16.13005,4.6239 -29.48681,-4.02808 z"
       id="path14657" />
  </g>
  <ellipse
     style="fill:#ffcf8d;fill-opacity:1;stroke:none;stroke-width:2.8006;stroke-miterlimit:4;stroke-dasharray:none;filter:url(#filter10375)"
     id="path967"
     ry="61.351028"
     rx="44.388226"
     cy="180.2354"
     cx="241.31859"
     transform="matrix(0.04019447,0,0,0.04019447,59.965731,10.005681)" />
  <circle
     style="fill:none;fill-opacity:0.976471;stroke:#00006a;stroke-width:2.38581;stroke-miterlimit:4;stroke-dasharray:none;stroke-dashoffset:0;stroke-opacity:1;filter:url(#filter10375)"
     id="path2346"
     cx="223.06233"
     cy="161.58502"
     r="0"
     transform="matrix(0.04019447,0,0,0.04019447,59.965731,10.005681)" />
  <circle
     style="fill:none;fill-opacity:0.976471;stroke:#00006a;stroke-width:2.38581;stroke-miterlimit:4;stroke-dasharray:none;stroke-dashoffset:0;stroke-opacity:1;filter:url(#filter10375)"
     id="path2346-8"
     cx="257.48718"
     cy="161.86322"
     r="0"
     transform="matrix(0.04019447,0,0,0.04019447,59.965731,10.005681)" />
  <path
     style="fill:none;stroke:#00006a;stroke-width:2.38581;stroke-linecap:butt;stroke-linejoin:miter;stroke-miterlimit:4;stroke-dasharray:none;stroke-opacity:1;filter:url(#filter10375)"
     d="m 196.98221,157.72281 12.41564,2.77108 z"
     id="path2843"
     transform="matrix(0.04019447,0,0,0.04019447,59.965731,10.005681)" />
  <path
     style="fill:none;stroke:#00006a;stroke-width:2.38581;stroke-linecap:butt;stroke-linejoin:miter;stroke-miterlimit:4;stroke-dasharray:none;stroke-opacity:1;filter:url(#filter10375)"
     d="m 238.39937,160.21536 h 3.44407 z"
     id="path2845"
     transform="matrix(0.04019447,0,0,0.04019447,59.965731,10.005681)" />
  <path
     style="fill:none;stroke:#00006a;stroke-width:2.386;stroke-linecap:butt;stroke-linejoin:miter;stroke-miterlimit:4;stroke-dasharray:none;stroke-opacity:1;filter:url(#filter10375)"
     d="m 272.32558,159.82416 12.69939,-3.70235 z"
     id="path2847"
     transform="matrix(0.04019447,0,0,0.04019447,59.965731,10.005681)" />
  <circle
     style="fill:#231600;fill-opacity:0.976471;stroke:none;stroke-width:2.38581;stroke-miterlimit:4;stroke-dasharray:none;stroke-dashoffset:0;stroke-opacity:1;filter:url(#filter10375)"
     id="path3855"
     cx="222.6722"
     cy="161.26073"
     r="4.0343752"
     transform="matrix(0.04019447,0,0,0.04019447,59.965731,10.005681)" />
  <circle
     style="fill:#180f00;fill-opacity:0.976471;stroke:none;stroke-width:2.38581;stroke-miterlimit:4;stroke-dasharray:none;stroke-dashoffset:0;stroke-opacity:1;filter:url(#filter10375)"
     id="path3855-1"
     cx="256.89697"
     cy="161.85939"
     r="4.0343752"
     transform="matrix(0.04019447,0,0,0.04019447,59.965731,10.005681)" />
  <path
     style="fill:#e9dbc5;fill-opacity:1;stroke:#b8a382;stroke-width:2.38581;stroke-linecap:butt;stroke-linejoin:miter;stroke-miterlimit:4;stroke-dasharray:none;stroke-opacity:1;filter:url(#filter10375)"
     d="m 233.50939,180.73889 c 6.60619,6.13536 9.9211,3.16196 13.18088,0.0359 -6.34999,4.50787 -9.59449,1.84103 -13.18088,-0.0359 z"
     id="path3997"
     transform="matrix(0.04019447,0,0,0.04019447,59.965731,10.005681)" />
  <path
     style="fill:#a40000;stroke:none;stroke-width:2.9155;stroke-linecap:butt;stroke-linejoin:miter;stroke-miterlimit:4;stroke-dasharray:none;stroke-opacity:1;filter:url(#filter10375)"
     d="m 229.05692,206.92531 v 0 l 9.34913,-6.06916 2.88562,2.30159 2.65272,-2.57693 9.52594,6.86246 v 0 c -12.96735,9.25204 -18.55712,4.10699 -24.41341,-0.51796 z"
     id="path4259"
     transform="matrix(0.04019447,0,0,0.04019447,59.965731,10.005681)" />
  <path
     style="fill:none;stroke:#000000;stroke-width:1px;stroke-linecap:butt;stroke-linejoin:miter;stroke-opacity:1;filter:url(#filter10375)"
     d="M 197.62186,263.80053 Z"
     id="path38883"
     transform="matrix(0.04019447,0,0,0.04019447,59.965731,10.005681)" />
  <rect
     style="fill:#ef2929;fill-opacity:1;stroke:none;stroke-width:3.55064;stroke-miterlimit:4;stroke-dasharray:none;filter:url(#filter10375)"
     id="rect16532"
     width="180.39455"
     height="126.69216"
     x="151.18658"
     y="259.95068"
     ry="241.35611"
     rx="197.40135"
     transform="matrix(0.04555865,0,0,0.03726169,58.593962,10.741348)" />
  <g
     id="g1239"
     transform="matrix(0.04019447,0,0,0.04019447,59.93502,10.129884)"
     style="filter:url(#filter10375)">
    <rect
       style="fill:#831616;fill-opacity:1;stroke:none;stroke-width:3"
       id="rect1084"
       width="3.6694405"
       height="52.144642"
       x="187.7207"
       y="294.26315"
       ry="19.747738"
       rx="19.747738" />
    <rect
       style="fill:#831616;fill-opacity:1;stroke:none;stroke-width:3"
       id="rect1084-9"
       width="3.6694405"
       height="52.144642"
       x="295.10004"
       y="294.26315"
       ry="19.747738"
       rx="19.747738" />
  </g>
  <g
     id="g7968"
     style="display:none;fill:#8c908c;fill-opacity:1;stroke:#000000;stroke-width:3;stroke-miterlimit:4;stroke-dasharray:none;stroke-opacity:1;filter:url(#filter10375)"
     transform="matrix(0.04019447,0,0,0.04019447,59.965731,10.005681)">
    <path
       id="path7980"
       style="fill:#8c908c;fill-opacity:1;stroke-width:3.91355"
       d="m 27.502597,436.24555 -0.231719,-12.25011 43.813764,-43.28577 -1.617039,14.07659 z"
       points="27.270878,423.99544 71.084642,380.70967 69.467603,394.78626 27.502597,436.24555 " />
    <path
       id="path7970"
       style="fill:#8c908c;fill-opacity:1;fill-rule:evenodd;stroke:none;stroke-width:3.91355;stroke-linejoin:round"
       d="M 79.399591,458.28035 126.0567,412.1855 69.467603,394.78626 27.502597,436.24555 Z"
       points="126.0567,412.1855 69.467603,394.78626 27.502597,436.24555 79.399591,458.28035 " />
    <path
       id="path7978"
       style="fill:#8c908c;fill-opacity:1;fill-rule:evenodd;stroke:none;stroke-width:3.91355;stroke-linejoin:round"
       d="m 126.0567,412.1855 4.59222,-14.87152 -59.564278,-16.60431 -1.617039,14.07659 z"
       points="130.64892,397.31398 71.084642,380.70967 69.467603,394.78626 126.0567,412.1855 " />
    <path
       id="path7972"
       style="fill:#8c908c;fill-opacity:1;stroke-width:3.91355"
       d="m 79.399591,458.28035 2.295621,-12.6026 -54.424334,-21.68231 0.231719,12.25011 z"
       points="81.695212,445.67775 27.270878,423.99544 27.502597,436.24555 79.399591,458.28035 " />
    <path
       id="path7976"
       style="fill:#8c908c;fill-opacity:1;stroke-width:3.91355"
       d="M 81.695212,445.67775 130.64892,397.31398 71.084642,380.70967 27.270878,423.99544 Z"
       points="130.64892,397.31398 71.084642,380.70967 27.270878,423.99544 81.695212,445.67775 " />
    <path
       id="path7974"
       style="fill:#8c908c;fill-opacity:1;fill-rule:evenodd;stroke:none;stroke-width:3.91355;stroke-linejoin:round"
       d="m 79.399591,458.28035 2.295621,-12.6026 48.953708,-48.36377 -4.59222,14.87152 z"
       points="81.695212,445.67775 130.64892,397.31398 126.0567,412.1855 79.399591,458.28035 " />
  </g>
  <path
     id="path849"
     style="display:inline;fill:#75507b;fill-opacity:1;stroke:none;stroke-width:2.51869;stroke-miterlimit:4;stroke-dasharray:none;stroke-dashoffset:0;stroke-opacity:0.823529;filter:url(#filter10375)"
     d="m 240.30041,103.16331 c -107.23526,8.87368 -13.79027,111.57537 -83.28271,162.31523 40.60416,-1.67801 41.31838,-21.73776 49.23728,-59.27457 0,0 -0.66165,-27.2194 -2.24299,-59.37328 22.61068,-21.41553 32.92188,4.74678 62.27458,-16.30587 4.61377,26.32583 18.7384,25.59699 16.39436,47.2487 0,0 0.0951,24.88494 -1.19868,48.02802 0,0 14.77661,-22.73918 18.82501,-54.93041 -0.17068,-31.9817 -12.5813,-68.96944 -60.00685,-67.70782 z"
     transform="matrix(0.04019447,0,0,0.04019447,59.965731,10.005681)" />
  <path
     style="fill:#ffc069;fill-opacity:1;stroke:none;stroke-width:0.924641px;stroke-linecap:butt;stroke-linejoin:miter;stroke-opacity:1;filter:url(#filter10375)"
     d="m 225.23969,251.52155 h 29.66251 l 29.55893,9.42494 c -33.61386,12.50687 -48.89837,14.83358 -83.57928,-0.30592 z"
     id="path9395"
     transform="matrix(0.04019447,0,0,0.04019447,59.834697,10.132694)" />
  <rect
     style="fill:none;stroke:#00006a;stroke-width:2.386;stroke-miterlimit:4;stroke-dasharray:none;stroke-opacity:1;filter:url(#filter10375)"
     id="rect1137"
     width="29.85183"
     height="20.611401"
     x="208.95001"
     y="149.78683"
     ry="45.021416"
     rx="45.021416"
     transform="matrix(0.04019447,0,0,0.04019447,59.965731,10.005681)" />
  <rect
     style="fill:none;stroke:#00006a;stroke-width:2.386;stroke-miterlimit:4;stroke-dasharray:none;stroke-opacity:1;filter:url(#filter10375)"
     id="rect1137-9"
     width="29.85183"
     height="20.611401"
     x="242.6996"
     y="149.78683"
     ry="45.021416"
     rx="45.021416"
     transform="matrix(0.04019447,0,0,0.04019447,59.965731,10.005681)" />
  <path
     style="fill:#ad7fa8;stroke:none;stroke-width:1.0298px;stroke-linecap:butt;stroke-linejoin:miter;stroke-opacity:1;filter:url(#filter10375)"
     d="m 251.61216,110.40575 c -79.58572,45.21494 -49.45159,112.30069 -49.45159,112.30069 0,0 -45.75607,-81.59292 30.41362,-105.62361 z"
     id="path25335"
     transform="matrix(0.04019447,0,0,0.04019447,59.965731,10.005681)" />
  <rect
     style="fill:#000000;stroke:none;stroke-width:0.827624;stroke-miterlimit:4;stroke-dasharray:none;stroke-opacity:1"
     id="rect9943"
     width="28.670778"
     height="2.1166666"
     x="82.451355"
     y="10.005681" />
  <rect
     style="fill:#000000;stroke:none;stroke-width:0.827624;stroke-miterlimit:4;stroke-dasharray:none;stroke-opacity:1"
     id="rect9943-4"
     width="28.670778"
     height="2.1166666"
     x="82.451355"
     y="14.701076" />
  <rect
     style="fill:#000000;stroke:none;stroke-width:0.827624;stroke-miterlimit:4;stroke-dasharray:none;stroke-opacity:1"
     id="rect9943-4-4"
     width="28.670778"
     height="2.1166666"
     x="82.451355"
     y="19.681442" />
  <rect
     style="fill:#000000;stroke:none;stroke-width:0.827624;stroke-miterlimit:4;stroke-dasharray:none;stroke-opacity:1"
     id="rect9943-4-4-4"
     width="28.670778"
     height="2.1166666"
     x="82.451355"
     y="25.038534" />
  <rect
     style="fill:#000000;stroke:none;stroke-width:1.10586;stroke-miterlimit:4;stroke-dasharray:none;stroke-opacity:1"
     id="rect9943-4-4-4-7"
     width="51.18861"
     height="2.1166666"
     x="59.965733"
     y="34.55101" />
  <rect
     style="fill:#000000;stroke:none;stroke-width:1.10586;stroke-miterlimit:4;stroke-dasharray:none;stroke-opacity:1"
     id="rect9943-4-4-4-7-6"
     width="51.18861"
     height="2.1166666"
     x="59.965729"
     y="39.99847" />
  <rect
     style="fill:#000000;stroke:none;stroke-width:1.10586;stroke-miterlimit:4;stroke-dasharray:none;stroke-opacity:1"
     id="rect9943-4-4-4-7-6-3"
     width="51.18861"
     height="2.1166666"
     x="59.965733"
     y="46.274197" />
</svg>
