<svg width="512" height="512" version="1.1" viewBox="0 0 512 512" xmlns="http://www.w3.org/2000/svg">
 <defs>
  <clipPath id="clipPath1495">
   <path class="powerclip" d="m30.868 30.868h450.26v450.26h-450.26zm387.21 225.13a162.08 162.08 0 0 0-162.08-162.08 162.08 162.08 0 0 0-162.08 162.08 162.08 162.08 0 0 0 162.08 162.08 162.08 162.08 0 0 0 162.08-162.08z"/>
  </clipPath>
 </defs>
 <path d="m476.13 256a220.13 220.13 0 0 1-220.13 220.13 220.13 220.13 0 0 1-220.13-220.13 220.13 220.13 0 0 1 220.13-220.13 220.13 220.13 0 0 1 220.13 220.13z" clip-path="url(#clipPath1495)" fill="#c36262"/>
 <rect transform="matrix(.70824 .70597 -.70626 .70796 0 0)" x="167.92" y="-33.311" width="388.24" height="67.785" fill="#c36262"/>
</svg>
