<svg width="512" height="512" version="1.1" viewBox="0 0 135.47 135.47" xmlns="http://www.w3.org/2000/svg">
 <defs>
  <clipPath id="clipPath1149">
   <path d="m114.04 67.735a46.303 46.303 0 0 1-46.303 46.303 46.303 46.303 0 0 1-46.303-46.303 46.303 46.303 0 0 1 46.303-46.303 46.303 46.303 0 0 1 46.303 46.303z" display="none" fill="#a40000" stroke-width=".52072"/>
   <path class="powerclip" d="m3.2023 3.2023h129.07v129.07h-129.07zm110.84 64.533a46.303 46.303 0 0 0-46.303-46.303 46.303 46.303 0 0 0-46.303 46.303 46.303 46.303 0 0 0 46.303 46.303 46.303 46.303 0 0 0 46.303-46.303z" fill="#a40000" stroke-width=".52072"/>
  </clipPath>
 </defs>
 <path d="m127.27 67.735a59.533 59.533 0 0 1-59.533 59.533 59.533 59.533 0 0 1-59.533-59.533 59.533 59.533 0 0 1 59.533-59.533 59.533 59.533 0 0 1 59.533 59.533z" clip-path="url(#clipPath1149)" stroke-width=".6695"/>
</svg>
