<svg width="512" height="512" version="1.1" viewBox="0 0 135.47 135.47" xmlns="http://www.w3.org/2000/svg">
 <g transform="matrix(1.5419 0 0 1.5419 -33.799 -14.002)">
  <rect x="74.622" y="54.983" width="32.411" height="32.411" stroke-width=".48729"/>
  <path transform="matrix(.26459 0 0 .26459 -7.584 2.6344)" d="m335.39 166.92-61.378-4.0039-38.095 48.292-15.159-59.612-57.7-21.307 52.01-32.838 2.4338-61.461 47.303 39.317 59.205-16.678-22.775 57.137z" stroke-width="2.386"/>
  <path transform="matrix(.26459 0 0 .26459 -37.441 9.3402)" d="m295.3 264.6c2.9981 1.7309-0.85413 4.8953-2.8769 4.983-5.4817 0.23757-8.0891-6.1666-7.089-10.737 1.7889-8.175 11.205-11.6 18.597-9.1951 10.848 3.5287 15.19 16.303 11.301 26.457-5.1833 13.533-21.421 18.813-34.317 13.407-16.228-6.8029-22.453-26.548-15.513-42.177 8.4049-18.928 31.681-26.102 50.036-17.619 21.632 9.9969 29.758 36.816 19.725 57.896-11.583 24.338-41.954 33.417-65.756 21.831-27.046-13.164-37.079-47.093-23.937-73.616 14.743-29.755 52.234-40.743 81.476-26.044 32.465 16.319 44.409 57.375 28.15 89.336" fill="none" stroke="#000" stroke-width="10"/>
 </g>
</svg>
