<svg width="512" height="512" version="1.1" viewBox="0 0 135.47 135.47" xmlns="http://www.w3.org/2000/svg">
 <g transform="translate(-2.8052 16.156)" fill="#4e9a06" stroke="#000">
  <path d="m83.161 114.48c6.6071-14.275 3.7273-5.2504 16.214-52.999-15.915 41.076-14.324 38.738-16.214 52.999z" stroke-width=".3278px"/>
  <path d="m83.235 114.45c-5.5004-32.751-17.638-41.12-32.396-66.363z" stroke-width=".47616px"/>
  <path d="m99.375 61.478c-7.6921-13.345-4.5351-23.183 17.912-26.784 1.1143 17.3-3.2417 28.136-17.912 26.784z" stroke-width=".3278px"/>
  <g stroke-width=".47616px">
   <path d="m83.235 114.45c2.7774-22.68 2.8151-8.9194-1.1866-80.5-3.7108 63.882-2.5522 59.94 1.1866 80.5z"/>
   <path d="m82.048 33.947c-16.579-15.025-16.595-30.033 12.836-45.009 9.2457 23.423 8.0488 40.345-12.836 45.009z"/>
   <path d="m50.839 48.083c4.2604-16.656 6.0473-32.189-26.778-32.005-2.3676 19.322 6.9872 29.661 26.778 32.005z"/>
  </g>
 </g>
</svg>
