<svg width="512" height="512" version="1.1" viewBox="0 0 512 512" xmlns="http://www.w3.org/2000/svg">
 <defs>
  <clipPath id="clipPath24142">
   <ellipse cx="256" cy="256" rx="86.964" ry="66.328" d="M 342.96376,256 A 86.96376,66.327728 0 0 1 256,322.32773 86.96376,66.327728 0 0 1 169.03624,256 86.96376,66.327728 0 0 1 256,189.67227 86.96376,66.327728 0 0 1 342.96376,256 Z" display="none" fill="#c84b4b"/>
   <path class="powerclip" d="m109.17 142.83h293.66v226.35h-293.66zm233.79 113.17a86.964 66.328 0 0 0-86.964-66.328 86.964 66.328 0 0 0-86.964 66.328 86.964 66.328 0 0 0 86.964 66.328 86.964 66.328 0 0 0 86.964-66.328z" fill="#c84b4b"/>
  </clipPath>
  <clipPath id="clipath_lpe_path-effect24146-6">
   <ellipse cx="256" cy="256" rx="86.964" ry="66.328" d="M 342.96376,256 A 86.96376,66.327728 0 0 1 256,322.32773 86.96376,66.327728 0 0 1 169.03624,256 86.96376,66.327728 0 0 1 256,189.67227 86.96376,66.327728 0 0 1 342.96376,256 Z" display="none" fill="#c84b4b"/>
   <path class="powerclip" d="m109.17 142.83h293.66v226.35h-293.66zm233.79 113.17a86.964 66.328 0 0 0-86.964-66.328 86.964 66.328 0 0 0-86.964 66.328 86.964 66.328 0 0 0 86.964 66.328 86.964 66.328 0 0 0 86.964-66.328z" fill="#c84b4b"/>
  </clipPath>
 </defs>
 <g transform="translate(-1.9152)">
  <path transform="translate(-68.061)" d="m397.83 256a141.83 108.17 0 0 1-141.83 108.17 141.83 108.17 0 0 1-141.83-108.17 141.83 108.17 0 0 1 141.83-108.17 141.83 108.17 0 0 1 141.83 108.17z" clip-path="url(#clipPath24142)"/>
  <path transform="translate(71.891)" d="m397.83 256a141.83 108.17 0 0 1-141.83 108.17 141.83 108.17 0 0 1-141.83-108.17 141.83 108.17 0 0 1 141.83-108.17 141.83 108.17 0 0 1 141.83 108.17z" clip-path="url(#clipath_lpe_path-effect24146-6)"/>
 </g>
</svg>
