<svg width="512" height="512" version="1.1" viewBox="0 0 512 512" xmlns="http://www.w3.org/2000/svg">
 <defs>
  <clipPath id="clipPath53191">
   <path d="m45.699 194.68v122.65h29.984v-84.121l44.607 84.121h35.324v-122.65h-29.984v84.121l-44.607-84.121zm140.8 0v122.65h87.16v-23.905h-55.533v-28.095h50.522v-23.905h-50.522v-22.837h53.725v-23.905zm104.49 0 29.163 122.65h36.474l22.016-93.239 22.262 93.239h36.474l28.916-122.65h-30.067l-21.194 89.132-21.03-89.132h-30.477l-21.03 89.132-21.194-89.132z" display="none" stroke-width="1.1683"/>
   <path class="powerclip" d="m-5 86.062h522v339.88h-522zm50.699 108.61v122.65h29.984v-84.121l44.607 84.121h35.324v-122.65h-29.984v84.121l-44.607-84.121zm140.8 0v122.65h87.16v-23.905h-55.533v-28.095h50.522v-23.905h-50.522v-22.837h53.725v-23.905zm104.49 0 29.163 122.65h36.474l22.016-93.239 22.262 93.239h36.474l28.916-122.65h-30.067l-21.194 89.132-21.03-89.132h-30.477l-21.03 89.132-21.194-89.132z" stroke-width="1.1683"/>
  </clipPath>
 </defs>
 <path d="m5e-7 91.062v329.88h512v-329.88z" clip-path="url(#clipPath53191)" stroke-width="1.0667"/>
</svg>
