<svg width="512" height="512" version="1.1" viewBox="0 0 512 512" xmlns="http://www.w3.org/2000/svg">
 <defs>
  <clipPath id="clipPath1216">
   <rect x="112.21" y="112.31" width="268.4" height="341.94" rx="44.117" ry="44.117" d="m 156.33176,112.30513 h 180.16849 c 24.44104,0 44.1174,19.67636 44.1174,44.1174 v 253.70694 c 0,24.44104 -19.67636,44.1174 -44.1174,44.1174 H 156.33176 c -24.44104,0 -44.1174,-19.67636 -44.1174,-44.1174 V 156.42253 c 0,-24.44104 19.67636,-44.1174 44.1174,-44.1174 z" display="none" fill="#ef2929" stroke-width="21.553"/>
   <path class="powerclip" d="m52.768 37.941h387.3v490.67h-387.3zm103.56 74.364c-24.441 0-44.117 19.676-44.117 44.117v253.71c0 24.441 19.676 44.117 44.117 44.117h180.17c24.441 0 44.117-19.676 44.117-44.117v-253.71c0-24.441-19.676-44.117-44.117-44.117z" fill="#ef2929" stroke-width="21.553"/>
  </clipPath>
 </defs>
 <g transform="translate(9.584,-27.276)">
  <path transform="matrix(.89315 0 0 .87764 26.33 59.805)" x="57.767761" y="42.940979" width="377.29648" height="480.67004" rx="49.395359" ry="50.268375" d="m107.16 42.941h278.51c27.365 0 49.395 22.42 49.395 50.268v380.13c0 27.849-22.03 50.268-49.395 50.268h-278.51c-27.365 0-49.395-22.42-49.395-50.268v-380.13c0-27.849 22.03-50.268 49.395-50.268z" clip-path="url(#clipPath1216)" stroke-width="30.297"/>
  <rect x="177.76" y="47.206" width="137.31" height="165.8" rx="0" ry="28.993" stroke-width="26.296"/>
 </g>
</svg>
