<svg width="512" height="512" version="1.1" viewBox="0 0 135.47 135.47" xmlns="http://www.w3.org/2000/svg">
 <path x="23.6122" y="9.4400997" width="88.245003" height="7.9376998" d="m23.612 9.4401h88.245v7.9377h-88.245z" stroke-width="3.6517"/>
 <path x="-5.9604645e-06" y="73.833641" width="135.47" height="7.9376998" d="m-5.9605e-6 73.834h135.47v7.9377h-135.47z" stroke-width="3.6517"/>
 <path x="23.6122" y="9.4400997" width="7.9376998" height="68.777367" d="m23.612 9.4401h7.9377v68.777h-7.9377z" stroke-width="4.0896"/>
 <path x="103.9192" y="9.4400997" width="7.9376998" height="68.816353" d="m103.92 9.4401h7.9377v68.816h-7.9377z" stroke-width="4.0896"/>
 <g stroke-width=".49728">
  <rect x="43.11" y="31.354" width="49.25" height="6.6147"/>
  <rect x="43.11" y="57.311" width="49.25" height="6.6147"/>
  <rect x="43.11" y="44.572" width="49.25" height="6.6147"/>
 </g>
 <g>
  <rect x="-5.9605e-6" y="118.58" width="135.47" height="7.9377" rx="0" ry="0" stroke-width=".09061"/>
  <rect x="-5.9605e-6" y="73.834" width="7.9377" height="52.681" rx="0" ry="0" stroke-width=".056505"/>
  <rect x="127.53" y="73.834" width="7.9377" height="52.681" rx="0" ry="0" stroke-width=".056505"/>
 </g>
</svg>
