<svg width="512" height="512" version="1.1" viewBox="0 0 135.47 135.47" xmlns="http://www.w3.org/2000/svg">
 <g transform="translate(.015479 -.90262)">
  <path d="m68.831 9.1729c-1.9379-0.07153-3.8797 0.02351-5.7927 0.27985-7.6521 1.0254-15.07 4.6954-19.751 11.263-4.681 6.568-6.166 12.562-2.7767 23.036l9.622 0.2116c-2.6447-8.1728-1.4059-13.535 1.3522-17.405 2.7581-3.8701 7.5382-6.4129 12.891-7.1301 5.3524-0.71722 11.059 0.47008 15.191 3.3533 4.1183 2.8737 6.9459 7.1823 7.135 14.28-0.1464 9.0982-1.8849 12.9-3.7099 14.966-1.835 2.0769-4.6377 3.0715-8.7151 5.0349-4.0774 1.9634-9.1278 5.3363-12.284 11.927s-4.7193 15.922-4.3489 30.638l10.062-0.25509c-0.349-13.863 1.2911-21.709 3.3632-26.036 2.0721-4.3273 4.2738-5.6155 7.5734-7.2044 3.2996-1.5888 7.9983-3.0349 11.89-7.4396 3.8918-4.4048 6.0906-11.115 6.2385-21.616l0.0025-0.09659-0.0025-0.09658c-0.24034-9.9695-4.9164-17.799-11.447-22.356-4.8977-3.4175-10.68-5.1398-16.494-5.3544z" color="#000000" stroke-width="1.268" style="-inkscape-stroke:none"/>
  <path d="m68.636 122.64a5.4878 5.4878 0 0 1-5.4878 5.4878 5.4878 5.4878 0 0 1-5.4878-5.4878 5.4878 5.4878 0 0 1 5.4878-5.4878 5.4878 5.4878 0 0 1 5.4878 5.4878z" stroke-width="8.043"/>
 </g>
</svg>
