<svg width="512" height="512" version="1.1" viewBox="0 0 512 512" xmlns="http://www.w3.org/2000/svg">
 <path transform="translate(0 6.5782)" d="m453.97 256a197.97 197.97 0 0 1-197.97 197.97 197.97 197.97 0 0 1-197.97-197.97 197.97 197.97 0 0 1 197.97-197.97 197.97 197.97 0 0 1 197.97 197.97z" clip-path="url(#clipPath11932)"/>
 <path d="m253.03 198.95 177.16-170.35-0.72877 170.46z" stroke="#000" stroke-width="1.203px"/>
 <defs>
  <clipPath id="clipPath11932">
   <path d="m256 117.26a138.74 138.74 0 0 0-138.74 138.74 138.74 138.74 0 0 0 138.74 138.74 138.74 138.74 0 0 0 138.74-138.74 138.74 138.74 0 0 0-3.8164-32.189h76.85v-94.619h-139.51v8.4004a138.74 138.74 0 0 0-72.262-20.33z" display="none" fill="#fff"/>
   <path class="powerclip" d="m53.03 53.03h405.94v405.94h-405.94zm202.97 64.232a138.74 138.74 0 0 0-138.74 138.74 138.74 138.74 0 0 0 138.74 138.74 138.74 138.74 0 0 0 138.74-138.74 138.74 138.74 0 0 0-3.8164-32.189h76.85v-94.619h-139.51v8.4004a138.74 138.74 0 0 0-72.262-20.33z" fill="#fff"/>
  </clipPath>
 </defs>
</svg>
