<svg width="512" height="512" version="1.1" viewBox="0 0 135.47 135.47" xmlns="http://www.w3.org/2000/svg">
 <defs>
  <clipPath id="clipPath1065">
   <circle cx="67.735" cy="67.735" r="31.027" d="M 98.761578,67.735001 A 31.026577,31.026577 0 0 1 67.735001,98.761578 31.026577,31.026577 0 0 1 36.708424,67.735001 31.026577,31.026577 0 0 1 67.735001,36.708424 31.026577,31.026577 0 0 1 98.761578,67.735001 Z" display="none" fill="#a40000" stroke-width="5.3887"/>
   <path class="powerclip" d="m17.032 17.032h101.41v101.41h-101.41zm81.73 50.703a31.027 31.027 0 0 0-31.027-31.027 31.027 31.027 0 0 0-31.027 31.027 31.027 31.027 0 0 0 31.027 31.027 31.027 31.027 0 0 0 31.027-31.027z" fill="#a40000" stroke-width="5.3887"/>
  </clipPath>
 </defs>
 <g>
  <path transform="translate(-19.434 -17.541)" d="m113.44 67.735a45.703 45.703 0 0 1-45.703 45.703 45.703 45.703 0 0 1-45.703-45.703 45.703 45.703 0 0 1 45.703-45.703 45.703 45.703 0 0 1 45.703 45.703z" clip-path="url(#clipPath1065)" stroke-width="7.9377"/>
  <rect transform="rotate(-45)" x="-12.83" y="134.34" width="28.337" height="38.063" stroke-width="5.8215"/>
  <rect transform="rotate(-45)" x="-4.9832" y="114.55" width="12.645" height="36.04" stroke-width="3.784"/>
 </g>
</svg>
