<?xml version="1.0" encoding="UTF-8" standalone="no"?>
<svg
   width="512"
   height="512"
   version="1.1"
   viewBox="0 0 135.47 135.47"
   id="svg4"
   xmlns="http://www.w3.org/2000/svg"
   xmlns:svg="http://www.w3.org/2000/svg">
  <defs
     id="defs4">
    <clipPath
       clipPathUnits="userSpaceOnUse"
       id="clipPath10">
      <rect
         style="display:block;fill:#000000;stroke-width:1.15425"
         id="rect10"
         width="22.516741"
         height="72.651344"
         x="31.213404"
         y="31.409325" />
    </clipPath>
  </defs>
  <g
     id="g13"
     transform="translate(4.5974873)">
    <path
       style="fill:#000000;stroke:#000000;stroke-width:0.136467px;stroke-linecap:butt;stroke-linejoin:miter;stroke-opacity:1"
       d="M 62.239111,24.368326 5.8975697,67.692771 62.239111,111.01722 v -86.648894 86.648894 0"
       id="path10" />
    <path
       id="rect11-0-2"
       style="stroke-width:1.04908"
       d="m 101.66413,24.314237 h 8.81144 c 12.31545,28.217055 14.3494,57.04365 0,86.841523 h -8.81144 c 16.65743,-31.688914 13.10266,-60.05099 0,-86.841523 z" />
    <path
       id="rect11-0-2-3"
       style="stroke-width:0.711279"
       d="m 68.194699,47.774998 h 8.81144 c 7.288558,12.899387 8.250527,26.296479 0,39.920003 h -8.81144 c 10.093711,-14.16476 8.210868,-27.282458 0,-39.920003 z" />
    <path
       id="rect11-0-2-3-7"
       style="stroke-width:0.907075"
       d="m 82.838868,35.273667 h 8.81144 c 12.315452,21.095051 14.349402,42.645794 0,64.922663 h -8.81144 c 16.65743,-23.69061 13.10266,-44.894079 0,-64.922663 z" />
  </g>
</svg>
