<svg width="512" height="512" version="1.1" viewBox="0 0 135.47 135.47" xmlns="http://www.w3.org/2000/svg">
 <defs>
  <clipPath id="clipPath1879">
   <ellipse cx="67.735" cy="67.735" rx="23.724" ry="23.765" display="none" stroke-width="5.7816"/>
   <path class="powerclip" d="m30.164 30.107h75.142v75.255h-75.142zm61.295 37.628a23.724 23.765 0 0 0-23.724-23.765 23.724 23.765 0 0 0-23.724 23.765 23.724 23.765 0 0 0 23.724 23.765 23.724 23.765 0 0 0 23.724-23.765z" stroke-width="5.7816"/>
  </clipPath>
  <clipPath id="clipath_lpe_path-effect1883-5">
   <ellipse cx="67.735" cy="67.735" rx="23.724" ry="23.765" display="none" stroke-width="5.7816"/>
   <path class="powerclip" d="m30.164 30.107h75.142v75.255h-75.142zm61.295 37.628a23.724 23.765 0 0 0-23.724-23.765 23.724 23.765 0 0 0-23.724 23.765 23.724 23.765 0 0 0 23.724 23.765 23.724 23.765 0 0 0 23.724-23.765z" stroke-width="5.7816"/>
  </clipPath>
 </defs>
 <rect x="3.6127" y="49.158" width="65.142" height="51.441" stroke-width="5.4007"/>
 <path transform="translate(-31.551 -18.526)" d="m100.31 67.735a32.571 32.628 0 0 1-32.571 32.628 32.571 32.628 0 0 1-32.571-32.628 32.571 32.628 0 0 1 32.571-32.628 32.571 32.628 0 0 1 32.571 32.628z" clip-path="url(#clipPath1879)" stroke-width="7.9377"/>
 <rect x="82.295" y="72.381" width="49.788" height="39.316" stroke-width="4.1277"/>
 <path transform="matrix(.7643 0 0 .7643 55.419 20.617)" d="m100.31 67.735a32.571 32.628 0 0 1-32.571 32.628 32.571 32.628 0 0 1-32.571-32.628 32.571 32.628 0 0 1 32.571-32.628 32.571 32.628 0 0 1 32.571 32.628z" clip-path="url(#clipath_lpe_path-effect1883-5)" stroke-width="7.9377"/>
</svg>
