<svg width="512" height="512" version="1.1" viewBox="0 0 135.47 135.47" xmlns="http://www.w3.org/2000/svg">
 <g transform="matrix(1.2511 0 0 1.2511 -17.009 -17.008)" stroke-width=".39996" aria-label="Abc">
  <path d="m42.221 79.599h-15.723l-2.8221 8.4663h-8.8119l14.917-41.986h9.5606l14.514 41.986h-8.8695zm-2.3614-7.1992-5.4714-16.414-5.4714 16.414z"/>
  <path d="m74.819 56.447q5.5866 0 9.3302 4.6651 3.7436 4.6075 3.7436 11.807 0 7.0265-3.7436 11.749-3.7436 4.7227-9.3302 4.7227-5.7018 0-8.5815-4.4923v3.1677h-8.0631v-41.986h8.0631v14.917q2.8797-4.5499 8.5815-4.5499zm3.1101 9.503q-1.9006-2.7645-4.8955-2.7645t-4.8955 2.7069q-1.9006 2.6493-1.9006 6.9113 0 4.4347 1.843 7.1416 1.9006 2.7069 4.9531 2.7069 2.9949 0 4.8955-2.7069t1.9006-6.9689q0-4.3195-1.9006-7.0265z"/>
  <path d="m107.13 62.955q-6.5657 0-6.5657 10.194 0 4.5499 1.7278 7.1416 1.7854 2.5917 4.8379 2.5917 2.3614 0 3.686-1.2671 1.3247-1.3247 2.0734-4.3195h7.7176q-0.57594 5.5866-4.262 8.8695-3.6284 3.2253-9.2726 3.2253-6.9113 0-10.77-4.2619-3.8012-4.2619-3.8012-11.98 0-7.948 3.8588-12.325 3.8588-4.3771 10.828-4.3771 5.817 0 9.3878 3.2253 3.6284 3.2253 4.0316 8.9271h-7.7176q-0.69113-3.0525-2.0158-4.3195-1.2671-1.3247-3.7436-1.3247z"/>
 </g>
</svg>
