<svg width="512" height="512" version="1.1" viewBox="0 0 512 512" xmlns="http://www.w3.org/2000/svg">
 <defs>
  <clipPath id="clipPath1946">
   <rect x="100.41" y="145.25" width="311.18" height="221.49" rx="31.379" ry="44.384" d="m 131.78786,145.25403 h 248.42428 c 17.38374,0 31.37859,19.79515 31.37859,44.38374 v 132.72446 c 0,24.58859 -13.99485,44.38374 -31.37859,44.38374 H 131.78786 c -17.38374,0 -31.37859,-19.79515 -31.37859,-44.38374 V 189.63777 c 0,-24.58859 13.99485,-44.38374 31.37859,-44.38374 z" display="none" fill="#ef2929" stroke-width="22.301"/>
   <path class="powerclip" d="m31 94.409h450v323.18h-450zm100.79 50.845c-17.384 0-31.379 19.795-31.379 44.384v132.72c0 24.589 13.995 44.384 31.379 44.384h248.42c17.384 0 31.379-19.795 31.379-44.384v-132.72c0-24.589-13.995-44.384-31.379-44.384z" fill="#ef2929" stroke-width="22.301"/>
  </clipPath>
 </defs>
 <path transform="matrix(1.1364 0 0 1 -34.921 -.001)" x="36" y="99.408966" width="440" height="313.18207" ry="62.757103" d="m98.757 99.409h314.49c34.767 0 62.757 27.99 62.757 62.757v187.67c0 34.767-27.99 62.757-62.757 62.757h-314.49c-34.767 0-62.757-27.99-62.757-62.757v-187.67c0-34.767 27.99-62.757 62.757-62.757z" clip-path="url(#clipPath1946)" stroke-width="31.533"/>
</svg>
