<svg width="512" height="512" version="1.1" viewBox="0 0 135.47 135.47" xmlns="http://www.w3.org/2000/svg">
 <g stroke-width=".17784">
  <path d="m83.549 67.735a15.814 15.814 0 0 1-15.814 15.814 15.814 15.814 0 0 1-15.814-15.814 15.814 15.814 0 0 1 15.814-15.814 15.814 15.814 0 0 1 15.814 15.814z"/>
  <path d="m34.956 67.735a15.814 15.814 0 0 1-15.814 15.814 15.814 15.814 0 0 1-15.814-15.814 15.814 15.814 0 0 1 15.814-15.814 15.814 15.814 0 0 1 15.814 15.814z"/>
  <path d="m132.22 67.735a15.814 15.814 0 0 1-15.814 15.814 15.814 15.814 0 0 1-15.814-15.814 15.814 15.814 0 0 1 15.814-15.814 15.814 15.814 0 0 1 15.814 15.814z"/>
 </g>
</svg>
