<?xml version="1.0" encoding="UTF-8" standalone="no"?>
<svg
   width="512"
   height="512"
   version="1.1"
   viewBox="0 0 135.47 135.47"
   id="svg4"
   xmlns="http://www.w3.org/2000/svg"
   xmlns:svg="http://www.w3.org/2000/svg">
  <defs
     id="defs4">
    <clipPath
       clipPathUnits="userSpaceOnUse"
       id="clipPath715">
      <rect
         style="display:none;fill:#9a9996;stroke-width:0.459309"
         id="rect717"
         width="29.531418"
         height="12.09844"
         x="52.969292"
         y="15.456326"
         ry="3.3476462"
         d="m 56.316938,15.456326 h 22.836125 c 1.854596,0 3.347647,1.49305 3.347647,3.347646 v 5.403147 c 0,1.854596 -1.493051,3.347647 -3.347647,3.347647 H 56.316938 c -1.854596,0 -3.347646,-1.493051 -3.347646,-3.347647 v -5.403147 c 0,-1.854596 1.49305,-3.347646 3.347646,-3.347646 z" />
      <path
         id="lpe_path-effect719"
         style="fill:#9a9996;stroke-width:0.459309"
         class="powerclip"
         d="M 38.984272,4.6516476 H 96.485729 V 29.508451 H 38.984272 Z M 56.316938,15.456326 c -1.854596,0 -3.347646,1.49305 -3.347646,3.347646 v 5.403147 c 0,1.854596 1.49305,3.347647 3.347646,3.347647 h 22.836125 c 1.854596,0 3.347647,-1.493051 3.347647,-3.347647 v -5.403147 c 0,-1.854596 -1.493051,-3.347646 -3.347647,-3.347646 z" />
    </clipPath>
  </defs>
  <g
     id="g591"
     transform="matrix(0.89036291,0,0,0.89036291,7.426266,10.068446)">
    <rect
       style="fill:#000000;stroke-width:0.344937"
       id="rect352"
       width="95.09465"
       height="38.911171"
       x="20.187677"
       y="62.358204"
       ry="3.4046798" />
    <rect
       style="fill:#000000;stroke-width:0.25061"
       id="rect352-3-6"
       width="95.09465"
       height="20.539852"
       x="20.187677"
       y="30.802048"
       ry="1.797212" />
    <rect
       style="fill:#000000;stroke-width:0.21898"
       id="rect352-3-6-6"
       width="95.09465"
       height="15.682363"
       x="20.187677"
       y="112.28568"
       ry="1.3721877" />
    <path
       style="fill:#000000;stroke-width:0.443575"
       id="rect460"
       width="47.501457"
       height="14.856804"
       x="43.984272"
       y="9.6516476"
       rx="0"
       ry="3.1398675"
       clip-path="url(#clipPath715)"
       d="m 47.12414,9.6516476 h 41.221722 c 1.739486,0 3.139867,1.4003804 3.139867,3.1398674 v 8.577069 c 0,1.739487 -1.400381,3.139867 -3.139867,3.139867 H 47.12414 c -1.739487,0 -3.139868,-1.40038 -3.139868,-3.139867 v -8.577069 c 0,-1.739487 1.400381,-3.1398674 3.139868,-3.1398674 z"
       transform="matrix(1.3019118,0,0,1.3289131,-20.450002,-11.259304)" />
  </g>
</svg>
