<svg width="512" height="512" version="1.1" viewBox="0 0 512 512" xmlns="http://www.w3.org/2000/svg">
 <path d="m304.44 163.65c-50.344 0-90.873 25.441-90.873 57.043 0 6.9875 1.9871 13.672 5.6181 19.848-5.4419-0.63348-11.049-0.9806-16.792-0.9806-50.345 0-90.875 25.441-90.875 57.043s40.531 57.043 90.875 57.043c1.8694 0 3.72-0.0468 5.5608-0.11589 21.24 20.525 59.775 34.19 103.97 34.19h61.184c67.278 0 121.44-31.66 121.44-70.987 0-36.813-47.464-66.904-108.72-70.6 6.0574-7.6528 9.4782-16.285 9.4782-25.441 0-31.602-40.531-57.043-90.875-57.043z" stroke-width="13.014"/>
 <circle cx="85.316" cy="124.55" r="68.549" stroke-width="29.455"/>
</svg>
