<?xml version="1.0" encoding="UTF-8" standalone="no"?>
<!-- Created with Inkscape (http://www.inkscape.org/) -->

<svg
   version="1.1"
   id="svg2"
   width="512"
   height="512"
   viewBox="0 0 512 512"
   xmlns:xlink="http://www.w3.org/1999/xlink"
   xmlns="http://www.w3.org/2000/svg"
   xmlns:svg="http://www.w3.org/2000/svg">
  <defs
     id="defs6">
    <pattern
       xlink:href="#Wood texture"
       preserveAspectRatio="xMidYMid"
       id="pattern55"
       patternTransform="translate(48.441815,46.562113)"
       x="0"
       y="0" />
    <pattern
       patternUnits="userSpaceOnUse"
       preserveAspectRatio="xMidYMid"
       width="203.2554"
       height="206.02851"
       patternTransform="translate(48.441815,46.562113)"
       style="fill:#707070"
       id="Wood texture">
      <path
         id="path48326"
         style="opacity:1;fill-opacity:1;stroke:none;stroke-width:2.1047;stroke-linecap:square;stroke-dasharray:none;stroke-opacity:1;paint-order:markers fill stroke"
         d="m 201.83017,0 c -2.33333,14.97724 -1.364,30.263902 -1.48868,45.362532 1.39276,15.859192 3.83195,31.691942 2.55592,47.657419 -0.10575,16.313339 0.83472,32.622749 -0.30859,48.897349 0.3564,13.51484 1.51972,27.3198 -2.32754,40.46952 -1.0442,5.13137 4.59767,8.60958 1.56889,23.62455 h -4.09775 c 0,0 0.84773,-22.02215 0.32232,-30.44265 1.55919,-12.99679 4.73332,-26.20385 1.77421,-39.25002 -1.65115,-17.72991 2.22237,-35.53671 0.93263,-53.18261 -3.3722,-16.501073 -0.39336,-33.413117 -3.24252,-49.979538 C 196.36213,22.166929 195.92883,10.867914 197.73241,0 Z m -9.6745,0 c 0.92586,15.948956 -0.66016,31.983942 1.33643,47.883122 -2.77204,12.366545 1.28792,24.475631 0.26782,36.354197 -1.9516,12.996696 0.11339,26.182811 0.39564,39.112701 -1.68482,10.85561 -0.94525,21.93531 -3.18813,32.71877 -0.58365,12.34424 4.19636,23.89453 1.68311,36.34739 0.0594,2.00717 -0.49487,13.59519 -0.49487,13.59519 h -2.75158 c -0.0779,-10.71588 2.34082,-25.35269 -0.9559,-35.84684 -2.2982,-13.11737 3.75592,-25.9204 3.3037,-39.10725 0.92648,-24.12632 -4.58389,-48.298671 -0.68522,-72.31821 0.55348,-14.175484 -0.0212,-28.353124 -1.89384,-42.370174 C 190.01721,13.394453 189.90417,4.6399975 189.4041,0 Z m -13.89452,0 c 0.30538,14.139806 0.1226,28.462802 2.50427,42.375617 4.36784,12.748627 2.03938,26.570178 5.11051,39.577655 1.3424,13.371908 -0.35573,26.807638 -3.2792,39.812888 -0.83252,13.23112 -3.21844,26.4261 -3.27924,39.65786 1.22736,14.94241 -1.04809,32.0537 -1.05634,44.58735 h -2.20373 c -0.21786,-8.76745 3.79985,-24.23012 2.49465,-32.59481 -1.85985,-12.16581 -4.10236,-24.41333 0.89457,-36.21416 0.50616,-8.8178 -0.63935,-17.76381 0.86877,-26.62258 0.59642,-10.13422 4.58781,-19.984985 2.84279,-30.145144 C 183.97009,69.319248 179.0986,59.156748 178.08303,48.28554 176.0908,35.189586 173.65611,22.100394 176.09267,8.8248038 176.89488,7.5891591 176.31234,3.0085115 176.05752,0 Z m -12.42353,0 c -0.26743,9.4865726 -3.11706,19.151286 -2.76666,28.856304 -2.10473,12.53947 7.38735,22.202551 10.0212,33.825451 5.16014,15.357117 3.57565,32.538692 -2.87408,47.295805 -3.42748,11.66036 -8.26322,25.21373 -3.14598,37.09243 3.70572,13.01278 -3.84832,26.44691 0.48127,39.40364 -0.50358,1.22141 -2.01933,16.19834 -1.71575,19.53774 h -2.82104 c 1.5931,-13.80745 -0.73057,-25.77775 2.17118,-39.48634 0.86459,-14.18909 -5.66399,-28.3195 -1.40033,-42.40687 1.92709,-11.24711 7.52575,-21.54794 9.48281,-32.699729 1.10965,-11.890407 -0.99145,-24.112278 -6.28517,-34.836944 C 165.0658,45.91028 157.0036,35.969272 162.25523,24.769523 163.288,19.377645 163.02773,6.3691427 163.01658,0 Z m -10.28495,0 c -0.9941,12.647335 -1.07719,25.299016 -4.89164,37.377925 -1.50145,17.109408 -8.86575,33.747815 -5.65705,51.139232 0.94488,10.139791 5.55244,19.255363 10.70097,27.643593 2.34434,13.17575 -5.7636,26.03835 -1.09308,39.2473 1.22851,13.28188 -0.37483,26.39236 1.81907,39.70412 0.28713,3.55124 -0.77269,6.5678 -0.87827,10.8992 h -2.11273 c -0.38205,-17.73314 -1.25343,-36.1326 -1.18416,-53.8839 -6.09698,-12.90602 7.46047,-26.89053 -1.23311,-39.7476 -6.84105,-11.11467 -9.21418,-23.621624 -8.74323,-36.528233 -1.76345,-13.048888 6.59543,-24.104889 5.94121,-37.152223 C 150.15293,27.583431 152.34181,11.835186 153.43994,0 Z m -10.38826,0 c -0.90437,7.668034 -3.20654,20.18922 -2.3765,28.655093 -1.6006,11.760336 -7.5316,22.702681 -6.4252,34.764886 0.18389,11.166521 -0.6341,22.507841 0.43506,33.563049 3.66284,12.096142 0.22415,25.075682 4.74208,36.942882 4.50679,17.47134 3.96313,35.86999 2.86455,53.68974 0.40574,4.06286 1.53683,13.51673 0.76001,18.39572 h -2.75716 c 0.29008,-6.42152 1.96958,-15.92058 -0.61724,-21.34865 -1.1083,-10.2545 3.51139,-20.28359 0.6893,-30.49458 -6.81644,-29.61444 -8.84514,-60.163422 -8.15048,-90.496649 -3.39465,-13.274144 8.29415,-24.840954 5.58637,-38.343195 C 141.25442,17.988831 142.41248,5.163806 142.40725,0 Z M 134.2323,0 c -0.84101,21.433334 -4.85916,42.656886 -4.42803,64.166385 -0.63894,27.220269 -1.77361,54.671025 2.49886,81.648725 0.4499,20.41371 2.91609,41.34431 1.92917,60.19652 h -3.16501 c 0,0 -0.13285,-15.20607 -1.21406,-21.47942 2.18221,-21.15363 -1.91888,-42.15305 -4.17381,-63.0937 -1.4794,-10.78871 1.08229,-21.447728 1.5594,-32.126019 0.0316,-17.518299 -1.35556,-35.041622 -0.32631,-52.553165 C 132.81651,25.377574 130.64899,12.343918 131.06729,0 Z m -11.85929,0 c -0.85761,14.544382 -0.61283,29.14749 -2.08825,43.654934 1.85113,15.679635 -3.33304,31.157509 -2.68374,46.88931 -0.47377,12.163286 5.28743,23.466056 4.48375,35.683926 0.36793,15.64841 -2.80633,31.37995 0.23783,46.88114 0.58293,11.11566 1.02926,21.84716 0.0503,32.90232 h -2.11138 v -0.001 c 0.13338,-0.7569 2.22701,-24.06172 -0.30861,-32.70383 -1.81927,-12.64087 -3.21385,-25.54569 0.70153,-37.96522 2.90401,-10.85721 -1.23407,-21.47959 -5.62986,-31.2464 -4.39641,-17.528485 4.85812,-34.662651 3.12966,-52.243176 C 118.71654,34.414741 120.51071,2.0181959 120.25468,0 Z m -2.11138,206.01163 c -0.006,0.0212 -0.008,0.0238 -0.008,0 z M 111.34441,0 c 1.71385,18.815717 6.69692,38.258033 -0.15496,56.610032 -2.54672,16.001157 -0.6634,32.284703 -2.09234,48.372548 -0.14049,13.06133 3.87073,25.69025 5.23558,38.53627 -0.13444,12.90188 -4.97423,26.11962 -0.51662,38.78776 0.47853,5.59533 -3.53746,15.38145 -2.47164,23.70502 h -2.50565 c -0.29612,-10.6264 4.58881,-20.60132 1.8653,-31.26272 -0.45473,-15.50544 2.3801,-31.14266 -1.03325,-46.49094 -1.42462,-12.73244 -2.9515,-25.45331 -4.34239,-38.189571 4.00429,-12.637892 2.76333,-26.111353 5.58229,-38.983552 0.88559,-12.87241 -0.42007,-25.758577 -0.0789,-38.681734 C 112.07738,10.005831 108.80773,3.4405833 108.83872,0 Z M 99.199593,0 c 0.299603,18.41585 4.632317,37.01718 0.0734,55.227376 -1.09347,15.128041 0.986287,30.547062 -2.991008,45.391084 -1.740382,14.25751 0.367143,29.74167 -7.620231,42.51291 -7.28177,17.63806 0.255723,36.74558 8.842477,52.38866 1.054564,2.02946 1.695338,10.4916 1.695338,10.4916 h -5.00177 c -2.649971,-13.36854 -8.775364,-22.43941 -9.115722,-34.97291 -3.03953,-13.6673 -0.370885,-27.50645 5.95073,-39.61301 C 94.192592,114.3495 89.779347,96.212655 96.757829,79.782088 98.102835,67.85377 93.675099,55.607931 98.310437,43.990738 101.26528,29.228731 97.635322,14.312523 94.197797,0 Z M 86.777465,0 c 1.305392,14.677191 -1.788495,29.55388 1.626017,44.005708 2.103572,22.049095 -5.446046,43.598713 -4.29617,65.649622 -0.242305,17.24759 -1.862585,34.39064 -3.479074,51.54439 -1.751214,11.12921 3.509382,21.18474 4.538158,32.0254 0.395709,2.04811 1.611069,12.78651 1.611069,12.78651 H 83.271194 C 83.780738,195.23771 77.084659,169.99637 78.6936,153.22871 82.685662,134.99686 78.984246,116.12198 82.095194,97.730777 83.762007,85.257809 85.641169,72.703448 84.463506,60.131251 87.585385,46.071999 84.149768,32.213065 84.583204,18.094174 85.267385,9.3414539 82.731148,3.0746797 83.271231,0 Z M 74.204402,0 c 0.397073,20.997766 1.455318,42.140443 -1.918333,62.94821 0.122343,16.09176 4.491435,32.269501 0.860613,48.27197 -0.397973,17.35589 -0.254664,34.73071 -0.122343,52.10042 -2.583232,13.87188 1.229303,30.43338 1.180082,42.69103 h -4.232266 c 0.52738,-3.95547 -0.553455,-12.63487 0.03137,-13.84559 2.150895,-11.94747 -3.024703,-23.63705 -0.524806,-35.55071 3.296693,-15.88481 -1.021705,-32.07857 1.586604,-48.07617 -0.09233,-18.420121 0.934926,-37.05804 -2.784371,-55.226014 5.644664,-13.05699 5.98952,-27.582534 2.814233,-41.296142 C 71.333824,9.40128 69.306762,3.3613644 69.972208,0 Z M 63.788939,0 c 0.0057,18.397565 2.148427,36.923361 0.39019,55.213774 -5.000617,17.691093 0.462554,36.228282 -3.186788,54.056816 -0.244686,26.81672 2.321254,53.57445 2.487976,80.40203 -0.485166,4.66073 0.5036,5.27388 0.308637,16.33901 h -2.539639 c 1.938199,-5.81458 0.668213,-20.22923 -1.518595,-28.73939 0.202583,-12.9965 2.514618,-26.36338 -2.096413,-38.92782 C 54.108374,119.17055 59.99636,99.969572 59.938719,80.732413 61.198042,59.220599 64.008053,37.557717 60.795224,16.105153 61.447234,13.037522 59.730274,4.1279509 61.249315,0 Z m -5.971117,0 c -1.628145,16.746716 -4.163785,33.507273 -9.493705,49.511845 -2.457581,14.275089 1.648188,28.54949 0.847007,42.667909 -3.106507,12.361576 -3.672782,24.917486 -3.594648,37.558746 -0.451064,14.86675 2.639535,29.57511 2.555955,44.37006 -0.659403,10.95279 10.501141,23.90333 9.685391,31.90307 H 54.469266 C 54.672378,201.22907 52.519654,191.04365 49.175203,184.55804 42.161235,170.78598 43.830841,154.89261 42.966149,139.95957 42.60237,124.75301 44.297692,109.55252 46.087684,94.534495 45.186505,79.175749 45.683426,63.735816 45.285528,48.388883 47.795546,34.742154 56.060632,22.07435 54.507334,7.8500107 54.608625,5.9868246 54.356568,2.5274041 54.469198,0 Z m -7.608,0 C 50.0854,13.30845 48.141925,26.945235 41.935635,38.734745 36.694511,25.777281 25.679652,12.219058 26.262814,0 h 2.666053 c 0.834962,6.8789027 1.853767,18.163366 5.294063,18.987383 6.666014,0.989208 7.857037,18.036846 11.013668,5.356596 C 48.987175,18.037293 48.251323,4.9362369 48.605541,0 Z m -5.08743,0 C 46.463274,7.5763729 43.966515,23.472 36.145338,13.566883 33.654743,10.345531 32.511148,4.6332094 32.165953,0 h 2.322089 C 36.360994,7.5717165 45.118791,14.030415 43.113007,4.4932989 43.217737,3.5142728 42.356391,1.574502 42.011773,0 Z m -21.39648,0 c -0.589787,11.430214 5.470678,21.675507 11.934051,30.62507 6.541992,14.750248 2.442645,31.244612 3.752346,46.794147 0.382318,17.286523 -1.025545,34.582753 -2.807464,51.714293 -0.807439,13.51652 -3.647973,26.82708 -3.938581,40.40427 -0.02381,13.35331 -9.336903,23.32492 -8.940352,36.47385 H 21.79398 c 0,0 4.785729,-21.0216 7.129471,-30.10846 4.07441,-18.07056 3.136187,-36.74316 5.920785,-54.98537 C 30.558327,108.66849 37.763195,96.326437 37.37164,83.871602 37.556307,70.934157 34.849553,57.93018 37.475048,45.081105 37.453882,32.641637 24.972302,25.061631 24.161046,12.813687 23.329107,9.113726 21.763737,3.2652586 21.794067,0 Z m -4.761123,0 c -1.022623,12.730946 2.073501,25.211195 6.690293,36.961905 4.501304,16.248639 1.598755,33.163072 1.513179,49.733468 -1.112859,11.093493 -3.579073,22.032917 -3.211223,33.263947 0.131528,8.60123 2.397702,16.99965 0.717834,25.33101 1.259793,9.61685 -2.324772,19.09343 -5.537419,28.3859 -1.473022,9.89789 1.369243,20.93308 -0.172574,32.3354 h -2.990993 c 0.869446,-4.85894 1.188499,-18.76783 0.362986,-24.36032 2.405042,-15.70276 2.937003,-20.87148 6.945827,-36.36098 C 20.807837,132.64725 23.887858,109.20906 23.083026,96.504468 26.04731,82.832116 26.6963,68.78689 25.585935,54.850792 22.639223,43.317577 23.64511,31.343112 17.82974,20.440732 16.947689,16.011938 15.289678,4.8393411 15.973973,0 Z m -7.707255,0 c -0.589292,14.663826 3.690535,33.597694 5.554281,48.162285 -0.847854,17.271972 1.999332,30.237223 -0.580528,47.390494 2.085967,20.463521 -2.05451,41.351681 -1.236363,61.891851 -0.685187,16.87685 -5.4868232,31.71581 -3.73739,48.567 H 6.9613833 c 3.9156967,-11.7696 1.4806337,-26.12432 4.4932837,-39.08008 0.389178,-12.66522 0.523019,-25.27475 1.994332,-37.90544 0.61965,-10.33022 0.843957,-20.88282 -0.27137,-31.009861 C 15.386064,87.424447 13.968333,70.60527 12.480026,59.71181 10.183344,48.290619 12.853104,47.439662 14.04779,36.029703 13.530822,25.402934 7.6093757,8.9282494 6.9613342,0 Z M 3.3501128,0 C 2.800097,9.9281159 3.9874961,24.589466 6.9613833,34.170754 7.2110589,46.714171 4.3414791,58.791845 6.6935282,71.333891 7.1878677,85.716899 5.2388901,92.593334 5.8755553,106.94679 c -1.1431106,12.56897 -4.2885657,30.81802 -0.027213,43.17351 -0.6609071,13.49709 -3.3311169,27.88135 -1.9768706,41.21098 -1.135646,6.78038 -1.0141493,8.13565 -0.5232,14.69714 H 0.23625827 C 0.9368315,199.05886 3.1748409,189.94826 0,182.88443 2.001566,168.51892 4.1889562,153.14792 2.4553928,138.64168 1.2733417,117.81134 3.2765216,123.73082 4.6681965,102.9406 5.8305978,90.248351 4.3317808,51.850511 3.8801424,32.707907 4.1045707,26.142841 -0.33225827,6.9598526 0.23625071,0 Z M 155.73623,47.01572 c 10.65069,15.283821 13.94678,35.611057 9.05727,53.50892 -3.59084,3.77141 -4.48497,21.25425 -8.75683,8.18173 -5.33045,-10.005854 -4.539,-21.477161 -6.62234,-32.164076 0.44357,-10.063368 4.2279,-19.728158 6.3219,-29.526574 z m 4.01742,12.430319 c -10.29233,5.458307 -7.34412,18.654653 -6.77866,28.157491 -1.92033,7.337229 3.37933,22.31763 10.17211,10.062003 4.75791,-10.535217 0.23125,-22.764088 -1.29566,-33.709881 -0.52907,-1.57408 -1.20944,-3.103541 -2.09779,-4.509613 z m -1.74971,7.671901 c 2.44417,6.527313 5.50503,26.594227 -1.28884,25.125722 -0.60892,-8.359092 -1.56837,-17.045009 1.28884,-25.125722 z m -56.10972,53.50076 c 2.38244,13.34843 4.9265,26.99335 4.73121,40.53205 -3.16857,10.85214 -0.78687,25.72146 -4.33287,34.45084 -6.003736,-8.74535 -5.720491,-20.51319 -12.753882,-28.65917 -2.26411,-13.58635 7.493571,-25.17539 8.943088,-38.30786 0.751586,-2.78708 1.374446,-5.83618 3.412454,-8.01586 z m -1.912887,14.67763 c -5.239277,9.93901 -11.677456,21.73192 -6.368086,33.00562 0.450989,5.22914 8.442353,20.91877 8.709223,8.13281 0.80942,-12.61906 5.50737,-25.56636 -0.2623,-37.68111 l -0.92856,-1.85035 z m -0.456801,7.816 c 2.061268,6.11852 2.076298,24.7977 -3.247946,23.4263 -2.042423,-7.92573 0.140485,-16.09949 3.247946,-23.4263 z M 38.03102,168.91921 c 0.249675,13.53899 12.219923,24.48717 12.178802,37.09242 h -1.604281 c 0,0 -0.0771,-11.22495 -3.470918,-13.08561 -2.772627,-7.11153 -9.034825,-19.90406 -11.586013,-5.31582 -2.541245,4.98106 -4.951367,14.61016 -4.619743,18.40143 h -2.666053 c 0.182325,-7.50813 8.758852,-25.51453 11.210805,-36.119 l 0.293669,-0.51255 z m -0.402422,20.96685 c 4.927764,2.00226 7.493794,16.12557 7.493794,16.12557 h -3.110619 c -2.941028,-7.64354 -8.526776,-9.89402 -7.523731,0 h -2.322089 c -0.345071,-4.70925 5.462645,-16.12557 5.462645,-16.12557 z" />
    </pattern>
    <clipPath
       clipPathUnits="userSpaceOnUse"
       id="clipPath52">
      <path
         id="path52"
         style="stroke-width:0.1;stroke-linecap:square;paint-order:markers fill stroke;stop-color:#000000"
         d="m -880.82767,-187.29769 h 1640.84 v 73.28155 h -1640.84 z" />
    </clipPath>
    <clipPath
       clipPathUnits="userSpaceOnUse"
       id="clipPath15">
      <rect
         style="fill:none;stroke:#000000;stroke-linecap:butt;stroke-linejoin:bevel;paint-order:stroke markers fill;stop-color:#000000"
         id="rect15-7"
         width="45.034248"
         height="38.955639"
         x="262.48285"
         y="121.00073" />
    </clipPath>
    <linearGradient
       id="linearGradient8">
      <stop
         style="stop-color:#000000;stop-opacity:1;"
         offset="0"
         id="stop9" />
      <stop
         style="stop-color:#000000;stop-opacity:0;"
         offset="1"
         id="stop10" />
    </linearGradient>
    <pattern
       xlink:href="#Bricks"
       id="pattern11"
       patternTransform="scale(0.8)"
       x="0"
       y="0"
       preserveAspectRatio="none" />
    <pattern
       patternUnits="userSpaceOnUse"
       width="100"
       height="100"
       id="Bricks"
       style="fill:#000000"
       patternTransform="scale(0.25,0.25)">
      <g
         id="g13367">
        <rect
           style="fill:none;stroke:none;stroke-width:0"
           id="rect13349"
           width="100"
           height="100"
           x="0"
           y="0" />
        <rect
           style="fill-opacity:1;stroke-width:0"
           id="rect13351"
           width="40"
           height="40"
           x="0"
           y="60" />
        <rect
           style="fill-opacity:1;stroke-width:0"
           id="rect13353"
           width="90"
           height="40"
           x="0"
           y="10" />
        <rect
           style="fill-opacity:1;stroke-width:0"
           id="rect13355"
           width="50"
           height="40"
           x="50"
           y="60" />
      </g>
    </pattern>
    <pattern
       xlink:href="#pattern34-30"
       preserveAspectRatio="xMidYMid"
       id="pattern32"
       patternTransform="matrix(10,0,0,10,1100,535)"
       x="0"
       y="0" />
    <pattern
       patternUnits="userSpaceOnUse"
       width="10"
       height="10"
       patternTransform="translate(1100,535) scale(2)"
       preserveAspectRatio="xMidYMid"
       style="fill:#000000"
       id="pattern34-30">
      <path
         id="path34-4"
         style="paint-order:stroke markers fill;stop-color:#000000"
         d="m 10,9.99997 -5,-2e-5 C 8,9.99997 10,7.99999 10,5 Z m -5,-5 h 5 c -3,0 -5,2 -5,5 z m 0,0 -5,2e-5 c 3,-2e-5 5,1.99996 5,4.99995 z m -5,5 h 5 c -3,0 -5,-2 -5,-5 z M 10,0 5,2e-5 C 8,0 10,1.99998 10,4.99997 Z M 5,5 h 5 C 7,5 5,3 5,0 Z m 0,0 -5,-2e-5 C 3,5 5,3.00002 5,3e-5 Z M 0,0 H 5 C 2,0 0,2 0,5 Z" />
    </pattern>
    <linearGradient
       id="linearGradient932">
      <stop
         style="stop-color:#d3d7cf;stop-opacity:1;"
         offset="0"
         id="stop930" />
    </linearGradient>
    <rect
       x="431.04541"
       y="12.922381"
       width="165.65886"
       height="424.72681"
       id="rect15640" />
    <rect
       x="275.12827"
       y="63.487175"
       width="125.47808"
       height="90.347405"
       id="rect65638" />
    <rect
       x="274.66911"
       y="83.016854"
       width="125.01892"
       height="70.817726"
       id="rect62530" />
    <rect
       x="10.947174"
       y="14.715694"
       width="1221.7237"
       height="487.93166"
       id="rect43298" />
  </defs>
  <rect
     style="display:none;opacity:0.05;fill:none;stroke:#818181;stroke-width:10.5493;stroke-opacity:1"
     id="rect1099"
     width="76.180122"
     height="76.180138"
     x="91.439789"
     y="91.439781"
     rx="2.2009101"
     ry="5.2248907" />
  <rect
     style="display:none;opacity:0.4;fill:none;stroke:#d7d7d7;stroke-width:6.11938;stroke-opacity:1"
     id="rect1099-8"
     width="44.190041"
     height="44.190044"
     x="107.43482"
     y="107.43482"
     rx="2.2009101"
     ry="5.2248907" />
  <rect
     style="display:none;opacity:0.05;fill:none;stroke:#818181;stroke-width:10.5493;stroke-opacity:1"
     id="rect1099-0"
     width="76.180122"
     height="76.180138"
     x="344.3801"
     y="344.38013"
     rx="2.2009101"
     ry="5.2248907" />
  <rect
     style="display:none;opacity:0.4;fill:none;stroke:#d7d7d7;stroke-width:6.11938;stroke-opacity:1"
     id="rect1099-8-9"
     width="44.190041"
     height="44.190044"
     x="360.37512"
     y="360.37512"
     rx="2.2009101"
     ry="5.2248907" />
  <text
     xml:space="preserve"
     id="text62528"
     style="font-style:normal;font-weight:normal;font-size:40px;line-height:1.25;font-family:sans-serif;white-space:pre;shape-inside:url(#rect62530);display:inline;opacity:0;fill:#000000;fill-opacity:1;stroke:none"
     transform="translate(-950.55491,-19.289335)" />
  <text
     xml:space="preserve"
     id="text65636"
     style="font-style:normal;font-weight:normal;font-size:40px;line-height:1.25;font-family:sans-serif;white-space:pre;shape-inside:url(#rect65638);display:inline;opacity:0;fill:#000000;fill-opacity:1;stroke:none"
     transform="translate(-950.55491,-19.289335)" />
  <text
     xml:space="preserve"
     id="text15638"
     style="font-style:normal;font-weight:normal;font-size:40px;line-height:1.25;font-family:sans-serif;white-space:pre;shape-inside:url(#rect15640);display:inline;opacity:0;fill:#000000;fill-opacity:1;stroke:none"
     transform="translate(-950.55491,-19.289335)" />
  <path
     id="path865"
     style="opacity:0;fill:#000000;stroke-width:0.542517;fill-opacity:1"
     d="m 171.99796,100.28513 c 33.65212,42.99104 17.64997,75.72991 -67.86409,67.86409 -37.322743,-3.43305 -67.864087,-30.38379 -67.864087,-67.86409 2e-6,-37.4803 30.383787,-67.864085 67.864087,-67.864087 37.4803,0 44.76171,38.35048 67.86409,67.864087 z" />
  <g
     id="layer1"
     transform="translate(-950.55491,-19.289335)"
     style="opacity:0;fill:#000000;stroke:none;fill-opacity:1" />
  <circle
     style="opacity:0;fill:#000000;fill-opacity:1;stroke:none;stroke-width:3.208;stroke-miterlimit:26.1"
     id="path1"
     cx="405.31396"
     cy="136.47011"
     r="35.598972" />
  <circle
     style="fill:#000000;fill-opacity:1;stroke:none;stroke-width:4.82857;stroke-miterlimit:26.1;opacity:0"
     id="path1-6"
     cx="148.97743"
     cy="390.84714"
     r="53.582386" />
  <path
     id="path1-6-5"
     style="fill:#000000;stroke-width:5.92549;stroke-miterlimit:26.1;opacity:0;fill-opacity:1"
     d="m 427.33231,337.26474 c 0,36.31537 -29.43943,65.7548 -65.7548,65.7548 -36.31537,0 -37.38203,-43.08781 -65.75479,-65.7548 -61.90329,-49.45451 25.08813,-66.39176 65.75479,-65.7548 36.31092,0.56874 65.7548,29.43943 65.7548,65.7548 z" />
  <rect
     style="fill:url(#pattern55);stroke:none;stroke-width:5;stroke-miterlimit:26.1;fill-opacity:1;opacity:0.05"
     id="rect1"
     width="512"
     height="512"
     x="0"
     y="0" />
</svg>
