<?xml version="1.0" encoding="UTF-8" standalone="no"?>
<svg
   width="1500"
   height="500"
   version="1.1"
   viewBox="0 0 1500 500"
   id="svg24"
   xmlns="http://www.w3.org/2000/svg"
   xmlns:svg="http://www.w3.org/2000/svg">
  <defs
     id="defs28">
    <rect
       x="407.77213"
       y="294.5014"
       width="346.45706"
       height="80.00264"
       id="rect24945" />
  </defs>
  <g
     transform="matrix(0.85257762,-0.29012917,0.29012917,0.85257762,-30.564648,51.537348)"
     style="fill:#797995;fill-opacity:1;stroke-width:1.00045453;stroke-dasharray:none"
     id="g6">
    <path
       d="m 304.63,271.08 c 108.96,-21.273 77.888,128.24 149.6,138.58 81.637,11.778 149.6,-62.045 149.6,-138.58 0,-76.535 -66.979,-138.14 -149.6,-138.58 -155.39,-0.83402 -247.75,157.75 -149.6,138.58 z"
       style="fill:#797995;paint-order:markers fill stroke;fill-opacity:1;stroke-width:1.00045453;stroke-dasharray:none"
       id="path2" />
    <circle
       cx="331.73999"
       cy="316.10001"
       r="26.740999"
       style="fill:#797995;paint-order:markers fill stroke;fill-opacity:1;stroke-width:1.00045453;stroke-dasharray:none"
       id="circle4" />
  </g>
  <circle
     cx="1077.0988"
     cy="141.59509"
     style="fill:#797995;stroke-width:0.938858;paint-order:markers fill stroke;fill-opacity:1"
     id="circle8"
     r="118.09853" />
  <g
     id="g4345"
     transform="translate(11.956411,-8.408867)"
     style="fill:#797995;fill-opacity:1">
    <path
       d="M 197.11,310.29 43.4,310.62028 c -36.392,53.625 -17.976,115.18 10.174,135.91 h 136.84 c 0,0 18.364,3.9326 24.381,-32.712 43.902,-3.8308 65.205,-90.65 0,-75.16 -1.1398,-11.553 -6.3507,-25.998 -17.684,-28.367 z m 30.746,40.818 c 6.6608,0.0642 13.127,2.1946 13.547,11.766 1.0889,22.295 -15.477,35.049 -25.59,35.071 0.96448,-13.173 1.7325,-33.638 -0.0264,-45.789 2.8655,-0.16932 7.5131,-1.0922 12.07,-1.0483 z"
       style="fill:#797995;fill-opacity:1"
       id="path12" />
    <path
       d="m 146.92,167.48 c 93.136,110.41 -23.51,86.489 -22.167,134.26 -11.526,-53.778 86.913,-29.578 22.167,-134.26 z"
       style="fill:#797995;fill-opacity:1"
       id="path14" />
    <path
       d="m 148.55,248.39 c -61.03,-70.201 -29.508,-97.661 4.3122,-122.57 -25.941,4.3607 -105.72,49.911 -4.3122,122.57 z"
       style="fill:#797995;fill-opacity:1"
       id="path16" />
  </g>
  <g
     id="g3815"
     transform="translate(0.5498111,-8.0001255)"
     style="fill:#797995;fill-opacity:1">
    <circle
       cx="1424.5"
       cy="383.48001"
       r="21.007999"
       style="opacity:1;fill:#797995;paint-order:markers fill stroke;fill-opacity:1"
       id="circle10" />
    <path
       d="m 1444.1,348.38 c -75.63,-15.94 -54.063,96.087 -103.84,103.84 -56.666,8.8255 -103.84,-46.49 -103.84,-103.84 0,-57.35 46.491,-103.51 103.84,-103.84 107.86,-0.62493 171.97,118.2 103.84,103.84 z"
       style="fill:#797995;paint-order:markers fill stroke;fill-opacity:1"
       id="path18" />
  </g>
  <circle
     cx="750"
     cy="79.931313"
     r="74.264496"
     style="fill:#797995;stroke-width:1.08993;paint-order:markers fill stroke;fill-opacity:1"
     id="circle20" />
  <g
     id="g37070"
     transform="matrix(1.6997735,0,0,1.6997735,-886.33064,-486.07171)"
     style="fill:#797995;fill-opacity:1">
    <g
       aria-label="1001000 1100101 1101100 1101100 1101111 100000 1010111 1101111 1110010 1101100 1100100 100001 "
       transform="matrix(1.3142287,0,0,1.3142287,198.56529,147.92505)"
       id="text24943"
       style="font-size:14px;line-height:1.25;white-space:pre;shape-inside:url(#rect24945);fill:#797995;fill-opacity:1">
      <path
         d="m 413.55469,306.90664 h -2.11231 v -5.7832 l 0.0205,-0.9502 0.0342,-1.03906 q -0.52637,0.52637 -0.73145,0.69043 l -1.14843,0.92285 -1.01856,-1.27148 3.21973,-2.56348 h 1.73633 z"
         style="font-weight:bold;font-family:'Open Sans';-inkscape-font-specification:'Open Sans, Bold';text-align:justify;fill:#797995;fill-opacity:1"
         id="path28972" />
      <path
         d="m 423.25488,301.90957 q 0,2.61816 -0.86133,3.87598 -0.85449,1.25781 -2.63867,1.25781 -1.72949,0 -2.61133,-1.29883 -0.875,-1.29883 -0.875,-3.83496 0,-2.64551 0.8545,-3.89648 0.85449,-1.25782 2.63183,-1.25782 1.72949,0 2.61133,1.3125 0.88867,1.3125 0.88867,3.8418 z m -4.88769,0 q 0,1.83887 0.31445,2.63867 0.32129,0.79297 1.07324,0.79297 0.73828,0 1.06641,-0.80664 0.32812,-0.80664 0.32812,-2.625 0,-1.83887 -0.33496,-2.63867 -0.32812,-0.80664 -1.05957,-0.80664 -0.74511,0 -1.0664,0.80664 -0.32129,0.7998 -0.32129,2.63867 z"
         style="font-weight:bold;font-family:'Open Sans';-inkscape-font-specification:'Open Sans, Bold';text-align:justify;fill:#797995;fill-opacity:1"
         id="path28974" />
      <path
         d="m 431.24609,301.90957 q 0,2.61816 -0.86132,3.87598 -0.8545,1.25781 -2.63868,1.25781 -1.72949,0 -2.61132,-1.29883 -0.875,-1.29883 -0.875,-3.83496 0,-2.64551 0.85449,-3.89648 0.85449,-1.25782 2.63183,-1.25782 1.7295,0 2.61133,1.3125 0.88867,1.3125 0.88867,3.8418 z m -4.88769,0 q 0,1.83887 0.31445,2.63867 0.32129,0.79297 1.07324,0.79297 0.73828,0 1.06641,-0.80664 0.32812,-0.80664 0.32812,-2.625 0,-1.83887 -0.33496,-2.63867 -0.32812,-0.80664 -1.05957,-0.80664 -0.74511,0 -1.0664,0.80664 -0.32129,0.7998 -0.32129,2.63867 z"
         style="font-weight:bold;font-family:'Open Sans';-inkscape-font-specification:'Open Sans, Bold';text-align:justify;fill:#797995;fill-opacity:1"
         id="path28976" />
      <path
         d="m 437.52832,306.90664 h -2.1123 v -5.7832 l 0.0205,-0.9502 0.0342,-1.03906 q -0.52636,0.52637 -0.73144,0.69043 l -1.14844,0.92285 -1.01855,-1.27148 3.21972,-2.56348 h 1.73633 z"
         style="font-weight:bold;font-family:'Open Sans';-inkscape-font-specification:'Open Sans, Bold';text-align:justify;fill:#797995;fill-opacity:1"
         id="path28978" />
      <path
         d="m 447.22852,301.90957 q 0,2.61816 -0.86133,3.87598 -0.85449,1.25781 -2.63867,1.25781 -1.7295,0 -2.61133,-1.29883 -0.875,-1.29883 -0.875,-3.83496 0,-2.64551 0.85449,-3.89648 0.85449,-1.25782 2.63184,-1.25782 1.72949,0 2.61132,1.3125 0.88868,1.3125 0.88868,3.8418 z m -4.8877,0 q 0,1.83887 0.31445,2.63867 0.32129,0.79297 1.07325,0.79297 0.73828,0 1.0664,-0.80664 0.32813,-0.80664 0.32813,-2.625 0,-1.83887 -0.33496,-2.63867 -0.32813,-0.80664 -1.05957,-0.80664 -0.74512,0 -1.06641,0.80664 -0.32129,0.7998 -0.32129,2.63867 z"
         style="font-weight:bold;font-family:'Open Sans';-inkscape-font-specification:'Open Sans, Bold';text-align:justify;fill:#797995;fill-opacity:1"
         id="path28980" />
      <path
         d="m 455.21973,301.90957 q 0,2.61816 -0.86133,3.87598 -0.85449,1.25781 -2.63867,1.25781 -1.7295,0 -2.61133,-1.29883 -0.875,-1.29883 -0.875,-3.83496 0,-2.64551 0.85449,-3.89648 0.85449,-1.25782 2.63184,-1.25782 1.72949,0 2.61132,1.3125 0.88868,1.3125 0.88868,3.8418 z m -4.8877,0 q 0,1.83887 0.31445,2.63867 0.32129,0.79297 1.07325,0.79297 0.73828,0 1.0664,-0.80664 0.32813,-0.80664 0.32813,-2.625 0,-1.83887 -0.33496,-2.63867 -0.32813,-0.80664 -1.05957,-0.80664 -0.74512,0 -1.06641,0.80664 -0.32129,0.7998 -0.32129,2.63867 z"
         style="font-weight:bold;font-family:'Open Sans';-inkscape-font-specification:'Open Sans, Bold';text-align:justify;fill:#797995;fill-opacity:1"
         id="path28982" />
      <path
         d="m 463.21094,301.90957 q 0,2.61816 -0.86133,3.87598 -0.85449,1.25781 -2.63867,1.25781 -1.72949,0 -2.61133,-1.29883 -0.875,-1.29883 -0.875,-3.83496 0,-2.64551 0.85449,-3.89648 0.85449,-1.25782 2.63184,-1.25782 1.72949,0 2.61133,1.3125 0.88867,1.3125 0.88867,3.8418 z m -4.8877,0 q 0,1.83887 0.31446,2.63867 0.32128,0.79297 1.07324,0.79297 0.73828,0 1.0664,-0.80664 0.32813,-0.80664 0.32813,-2.625 0,-1.83887 -0.33496,-2.63867 -0.32813,-0.80664 -1.05957,-0.80664 -0.74512,0 -1.06641,0.80664 -0.32129,0.7998 -0.32129,2.63867 z"
         style="font-weight:bold;font-family:'Open Sans';-inkscape-font-specification:'Open Sans, Bold';text-align:justify;fill:#797995;fill-opacity:1"
         id="path28984" />
      <path
         d="m 473.25664,306.90664 h -2.1123 v -5.7832 l 0.0205,-0.9502 0.0342,-1.03906 q -0.52636,0.52637 -0.73144,0.69043 l -1.14844,0.92285 -1.01855,-1.27148 3.21972,-2.56348 h 1.73633 z"
         style="font-weight:bold;font-family:'Open Sans';-inkscape-font-specification:'Open Sans, Bold';text-align:justify;fill:#797995;fill-opacity:1"
         id="path28986" />
      <path
         d="m 481.24785,306.90664 h -2.11231 v -5.7832 l 0.0205,-0.9502 0.0342,-1.03906 q -0.52637,0.52637 -0.73144,0.69043 l -1.14844,0.92285 -1.01856,-1.27148 3.21973,-2.56348 h 1.73633 z"
         style="font-weight:bold;font-family:'Open Sans';-inkscape-font-specification:'Open Sans, Bold';text-align:justify;fill:#797995;fill-opacity:1"
         id="path28988" />
      <path
         d="m 490.94804,301.90957 q 0,2.61816 -0.86132,3.87598 -0.8545,1.25781 -2.63868,1.25781 -1.72949,0 -2.61132,-1.29883 -0.875,-1.29883 -0.875,-3.83496 0,-2.64551 0.85449,-3.89648 0.85449,-1.25782 2.63183,-1.25782 1.7295,0 2.61133,1.3125 0.88867,1.3125 0.88867,3.8418 z m -4.88769,0 q 0,1.83887 0.31445,2.63867 0.32129,0.79297 1.07324,0.79297 0.73829,0 1.06641,-0.80664 0.32813,-0.80664 0.32813,-2.625 0,-1.83887 -0.33497,-2.63867 -0.32812,-0.80664 -1.05957,-0.80664 -0.74511,0 -1.0664,0.80664 -0.32129,0.7998 -0.32129,2.63867 z"
         style="font-weight:bold;font-family:'Open Sans';-inkscape-font-specification:'Open Sans, Bold';text-align:justify;fill:#797995;fill-opacity:1"
         id="path28990" />
      <path
         d="m 498.93925,301.90957 q 0,2.61816 -0.86132,3.87598 -0.8545,1.25781 -2.63868,1.25781 -1.72949,0 -2.61132,-1.29883 -0.875,-1.29883 -0.875,-3.83496 0,-2.64551 0.85449,-3.89648 0.85449,-1.25782 2.63183,-1.25782 1.7295,0 2.61133,1.3125 0.88867,1.3125 0.88867,3.8418 z m -4.88769,0 q 0,1.83887 0.31445,2.63867 0.32129,0.79297 1.07324,0.79297 0.73829,0 1.06641,-0.80664 0.32813,-0.80664 0.32813,-2.625 0,-1.83887 -0.33496,-2.63867 -0.32813,-0.80664 -1.05958,-0.80664 -0.74511,0 -1.0664,0.80664 -0.32129,0.7998 -0.32129,2.63867 z"
         style="font-weight:bold;font-family:'Open Sans';-inkscape-font-specification:'Open Sans, Bold';text-align:justify;fill:#797995;fill-opacity:1"
         id="path28992" />
      <path
         d="m 505.22148,306.90664 h -2.1123 v -5.7832 l 0.0205,-0.9502 0.0342,-1.03906 q -0.52636,0.52637 -0.73144,0.69043 l -1.14844,0.92285 -1.01855,-1.27148 3.21972,-2.56348 h 1.73633 z"
         style="font-weight:bold;font-family:'Open Sans';-inkscape-font-specification:'Open Sans, Bold';text-align:justify;fill:#797995;fill-opacity:1"
         id="path28994" />
      <path
         d="m 514.92168,301.90957 q 0,2.61816 -0.86133,3.87598 -0.85449,1.25781 -2.63867,1.25781 -1.7295,0 -2.61133,-1.29883 -0.875,-1.29883 -0.875,-3.83496 0,-2.64551 0.85449,-3.89648 0.85449,-1.25782 2.63184,-1.25782 1.72949,0 2.61132,1.3125 0.88868,1.3125 0.88868,3.8418 z m -4.8877,0 q 0,1.83887 0.31445,2.63867 0.32129,0.79297 1.07325,0.79297 0.73828,0 1.0664,-0.80664 0.32813,-0.80664 0.32813,-2.625 0,-1.83887 -0.33496,-2.63867 -0.32813,-0.80664 -1.05957,-0.80664 -0.74512,0 -1.06641,0.80664 -0.32129,0.7998 -0.32129,2.63867 z"
         style="font-weight:bold;font-family:'Open Sans';-inkscape-font-specification:'Open Sans, Bold';text-align:justify;fill:#797995;fill-opacity:1"
         id="path28996" />
      <path
         d="m 521.2039,306.90664 h -2.1123 v -5.7832 l 0.0205,-0.9502 0.0342,-1.03906 q -0.52637,0.52637 -0.73145,0.69043 l -1.14844,0.92285 -1.01855,-1.27148 3.21973,-2.56348 h 1.73632 z"
         style="font-weight:bold;font-family:'Open Sans';-inkscape-font-specification:'Open Sans, Bold';text-align:justify;fill:#797995;fill-opacity:1"
         id="path28998" />
      <path
         d="m 532.9586,306.90664 h -2.11231 v -5.7832 l 0.0205,-0.9502 0.0342,-1.03906 q -0.52637,0.52637 -0.73145,0.69043 l -1.14843,0.92285 -1.01856,-1.27148 3.21973,-2.56348 h 1.73633 z"
         style="font-weight:bold;font-family:'Open Sans';-inkscape-font-specification:'Open Sans, Bold';text-align:justify;fill:#797995;fill-opacity:1"
         id="path29000" />
      <path
         d="m 540.94981,306.90664 h -2.11231 v -5.7832 l 0.0205,-0.9502 0.0342,-1.03906 q -0.52637,0.52637 -0.73145,0.69043 l -1.14843,0.92285 -1.01856,-1.27148 3.21973,-2.56348 h 1.73633 z"
         style="font-weight:bold;font-family:'Open Sans';-inkscape-font-specification:'Open Sans, Bold';text-align:justify;fill:#797995;fill-opacity:1"
         id="path29002" />
      <path
         d="m 550.64999,301.90957 q 0,2.61816 -0.86132,3.87598 -0.8545,1.25781 -2.63868,1.25781 -1.72949,0 -2.61132,-1.29883 -0.875,-1.29883 -0.875,-3.83496 0,-2.64551 0.85449,-3.89648 0.85449,-1.25782 2.63183,-1.25782 1.7295,0 2.61133,1.3125 0.88867,1.3125 0.88867,3.8418 z m -4.88769,0 q 0,1.83887 0.31445,2.63867 0.32129,0.79297 1.07324,0.79297 0.73829,0 1.06641,-0.80664 0.32813,-0.80664 0.32813,-2.625 0,-1.83887 -0.33497,-2.63867 -0.32812,-0.80664 -1.05957,-0.80664 -0.74511,0 -1.0664,0.80664 -0.32129,0.7998 -0.32129,2.63867 z"
         style="font-weight:bold;font-family:'Open Sans';-inkscape-font-specification:'Open Sans, Bold';text-align:justify;fill:#797995;fill-opacity:1"
         id="path29004" />
      <path
         d="m 556.93222,306.90664 h -2.1123 v -5.7832 l 0.0205,-0.9502 0.0342,-1.03906 q -0.52636,0.52637 -0.73144,0.69043 l -1.14844,0.92285 -1.01855,-1.27148 3.21972,-2.56348 h 1.73633 z"
         style="font-weight:bold;font-family:'Open Sans';-inkscape-font-specification:'Open Sans, Bold';text-align:justify;fill:#797995;fill-opacity:1"
         id="path29006" />
      <path
         d="m 564.92343,306.90664 h -2.1123 v -5.7832 l 0.0205,-0.9502 0.0342,-1.03906 q -0.52636,0.52637 -0.73144,0.69043 l -1.14844,0.92285 -1.01855,-1.27148 3.21972,-2.56348 h 1.73633 z"
         style="font-weight:bold;font-family:'Open Sans';-inkscape-font-specification:'Open Sans, Bold';text-align:justify;fill:#797995;fill-opacity:1"
         id="path29008" />
      <path
         d="m 574.62363,301.90957 q 0,2.61816 -0.86133,3.87598 -0.85449,1.25781 -2.63867,1.25781 -1.7295,0 -2.61133,-1.29883 -0.875,-1.29883 -0.875,-3.83496 0,-2.64551 0.85449,-3.89648 0.85449,-1.25782 2.63184,-1.25782 1.72949,0 2.61132,1.3125 0.88868,1.3125 0.88868,3.8418 z m -4.8877,0 q 0,1.83887 0.31445,2.63867 0.32129,0.79297 1.07325,0.79297 0.73828,0 1.0664,-0.80664 0.32813,-0.80664 0.32813,-2.625 0,-1.83887 -0.33496,-2.63867 -0.32813,-0.80664 -1.05957,-0.80664 -0.74512,0 -1.06641,0.80664 -0.32129,0.7998 -0.32129,2.63867 z"
         style="font-weight:bold;font-family:'Open Sans';-inkscape-font-specification:'Open Sans, Bold';text-align:justify;fill:#797995;fill-opacity:1"
         id="path29010" />
      <path
         d="m 582.61484,301.90957 q 0,2.61816 -0.86133,3.87598 -0.85449,1.25781 -2.63867,1.25781 -1.72949,0 -2.61133,-1.29883 -0.875,-1.29883 -0.875,-3.83496 0,-2.64551 0.85449,-3.89648 0.85449,-1.25782 2.63184,-1.25782 1.72949,0 2.61133,1.3125 0.88867,1.3125 0.88867,3.8418 z m -4.8877,0 q 0,1.83887 0.31446,2.63867 0.32128,0.79297 1.07324,0.79297 0.73828,0 1.0664,-0.80664 0.32813,-0.80664 0.32813,-2.625 0,-1.83887 -0.33496,-2.63867 -0.32813,-0.80664 -1.05957,-0.80664 -0.74512,0 -1.06641,0.80664 -0.32129,0.7998 -0.32129,2.63867 z"
         style="font-weight:bold;font-family:'Open Sans';-inkscape-font-specification:'Open Sans, Bold';text-align:justify;fill:#797995;fill-opacity:1"
         id="path29012" />
      <path
         d="m 592.66055,306.90664 h -2.1123 v -5.7832 l 0.0205,-0.9502 0.0342,-1.03906 q -0.52637,0.52637 -0.73145,0.69043 l -1.14844,0.92285 -1.01855,-1.27148 3.21972,-2.56348 h 1.73633 z"
         style="font-weight:bold;font-family:'Open Sans';-inkscape-font-specification:'Open Sans, Bold';text-align:justify;fill:#797995;fill-opacity:1"
         id="path29014" />
      <path
         d="m 600.65176,306.90664 h -2.1123 v -5.7832 l 0.0205,-0.9502 0.0342,-1.03906 q -0.52637,0.52637 -0.73145,0.69043 l -1.14844,0.92285 -1.01855,-1.27148 3.21973,-2.56348 h 1.73632 z"
         style="font-weight:bold;font-family:'Open Sans';-inkscape-font-specification:'Open Sans, Bold';text-align:justify;fill:#797995;fill-opacity:1"
         id="path29016" />
      <path
         d="m 610.35196,301.90957 q 0,2.61816 -0.86133,3.87598 -0.85449,1.25781 -2.63867,1.25781 -1.72949,0 -2.61133,-1.29883 -0.875,-1.29883 -0.875,-3.83496 0,-2.64551 0.85449,-3.89648 0.8545,-1.25782 2.63184,-1.25782 1.72949,0 2.61133,1.3125 0.88867,1.3125 0.88867,3.8418 z m -4.8877,0 q 0,1.83887 0.31446,2.63867 0.32129,0.79297 1.07324,0.79297 0.73828,0 1.06641,-0.80664 0.32812,-0.80664 0.32812,-2.625 0,-1.83887 -0.33496,-2.63867 -0.32813,-0.80664 -1.05957,-0.80664 -0.74512,0 -1.06641,0.80664 -0.32129,0.7998 -0.32129,2.63867 z"
         style="font-weight:bold;font-family:'Open Sans';-inkscape-font-specification:'Open Sans, Bold';text-align:justify;fill:#797995;fill-opacity:1"
         id="path29018" />
      <path
         d="m 616.63419,306.90664 h -2.11231 v -5.7832 l 0.0205,-0.9502 0.0342,-1.03906 q -0.52637,0.52637 -0.73145,0.69043 l -1.14843,0.92285 -1.01856,-1.27148 3.21973,-2.56348 h 1.73633 z"
         style="font-weight:bold;font-family:'Open Sans';-inkscape-font-specification:'Open Sans, Bold';text-align:justify;fill:#797995;fill-opacity:1"
         id="path29020" />
      <path
         d="m 624.6254,306.90664 h -2.11231 v -5.7832 l 0.0205,-0.9502 0.0342,-1.03906 q -0.52637,0.52637 -0.73145,0.69043 l -1.14843,0.92285 -1.01856,-1.27148 3.21973,-2.56348 h 1.73633 z"
         style="font-weight:bold;font-family:'Open Sans';-inkscape-font-specification:'Open Sans, Bold';text-align:justify;fill:#797995;fill-opacity:1"
         id="path29022" />
      <path
         d="m 634.32559,301.90957 q 0,2.61816 -0.86133,3.87598 -0.85449,1.25781 -2.63867,1.25781 -1.72949,0 -2.61133,-1.29883 -0.875,-1.29883 -0.875,-3.83496 0,-2.64551 0.8545,-3.89648 0.85449,-1.25782 2.63183,-1.25782 1.72949,0 2.61133,1.3125 0.88867,1.3125 0.88867,3.8418 z m -4.88769,0 q 0,1.83887 0.31445,2.63867 0.32129,0.79297 1.07324,0.79297 0.73828,0 1.06641,-0.80664 0.32812,-0.80664 0.32812,-2.625 0,-1.83887 -0.33496,-2.63867 -0.32812,-0.80664 -1.05957,-0.80664 -0.74512,0 -1.0664,0.80664 -0.32129,0.7998 -0.32129,2.63867 z"
         style="font-weight:bold;font-family:'Open Sans';-inkscape-font-specification:'Open Sans, Bold';text-align:justify;fill:#797995;fill-opacity:1"
         id="path29024" />
      <path
         d="m 642.3168,301.90957 q 0,2.61816 -0.86133,3.87598 -0.85449,1.25781 -2.63867,1.25781 -1.72949,0 -2.61133,-1.29883 -0.875,-1.29883 -0.875,-3.83496 0,-2.64551 0.8545,-3.89648 0.85449,-1.25782 2.63183,-1.25782 1.7295,0 2.61133,1.3125 0.88867,1.3125 0.88867,3.8418 z m -4.88769,0 q 0,1.83887 0.31445,2.63867 0.32129,0.79297 1.07324,0.79297 0.73828,0 1.06641,-0.80664 0.32812,-0.80664 0.32812,-2.625 0,-1.83887 -0.33496,-2.63867 -0.32812,-0.80664 -1.05957,-0.80664 -0.74511,0 -1.0664,0.80664 -0.32129,0.7998 -0.32129,2.63867 z"
         style="font-weight:bold;font-family:'Open Sans';-inkscape-font-specification:'Open Sans, Bold';text-align:justify;fill:#797995;fill-opacity:1"
         id="path29026" />
      <path
         d="m 652.3625,306.90664 h -2.1123 v -5.7832 l 0.0205,-0.9502 0.0342,-1.03906 q -0.52637,0.52637 -0.73145,0.69043 l -1.14844,0.92285 -1.01855,-1.27148 3.21972,-2.56348 h 1.73633 z"
         style="font-weight:bold;font-family:'Open Sans';-inkscape-font-specification:'Open Sans, Bold';text-align:justify;fill:#797995;fill-opacity:1"
         id="path29028" />
      <path
         d="m 660.35371,306.90664 h -2.1123 v -5.7832 l 0.0205,-0.9502 0.0342,-1.03906 q -0.52637,0.52637 -0.73145,0.69043 l -1.14844,0.92285 -1.01855,-1.27148 3.21973,-2.56348 h 1.73632 z"
         style="font-weight:bold;font-family:'Open Sans';-inkscape-font-specification:'Open Sans, Bold';text-align:justify;fill:#797995;fill-opacity:1"
         id="path29030" />
      <path
         d="m 670.05391,301.90957 q 0,2.61816 -0.86133,3.87598 -0.85449,1.25781 -2.63867,1.25781 -1.72949,0 -2.61133,-1.29883 -0.875,-1.29883 -0.875,-3.83496 0,-2.64551 0.85449,-3.89648 0.8545,-1.25782 2.63184,-1.25782 1.72949,0 2.61133,1.3125 0.88867,1.3125 0.88867,3.8418 z m -4.8877,0 q 0,1.83887 0.31446,2.63867 0.32129,0.79297 1.07324,0.79297 0.73828,0 1.06641,-0.80664 0.32812,-0.80664 0.32812,-2.625 0,-1.83887 -0.33496,-2.63867 -0.32813,-0.80664 -1.05957,-0.80664 -0.74512,0 -1.06641,0.80664 -0.32129,0.7998 -0.32129,2.63867 z"
         style="font-weight:bold;font-family:'Open Sans';-inkscape-font-specification:'Open Sans, Bold';text-align:justify;fill:#797995;fill-opacity:1"
         id="path29032" />
      <path
         d="m 676.33612,306.90664 h -2.1123 v -5.7832 l 0.0205,-0.9502 0.0342,-1.03906 q -0.52636,0.52637 -0.73144,0.69043 l -1.14844,0.92285 -1.01855,-1.27148 3.21972,-2.56348 h 1.73633 z"
         style="font-weight:bold;font-family:'Open Sans';-inkscape-font-specification:'Open Sans, Bold';text-align:justify;fill:#797995;fill-opacity:1"
         id="path29034" />
      <path
         d="m 684.32733,306.90664 h -2.1123 v -5.7832 l 0.0205,-0.9502 0.0342,-1.03906 q -0.52636,0.52637 -0.73144,0.69043 l -1.14844,0.92285 -1.01855,-1.27148 3.21972,-2.56348 h 1.73633 z"
         style="font-weight:bold;font-family:'Open Sans';-inkscape-font-specification:'Open Sans, Bold';text-align:justify;fill:#797995;fill-opacity:1"
         id="path29036" />
      <path
         d="m 692.31854,306.90664 h -2.1123 v -5.7832 l 0.0205,-0.9502 0.0342,-1.03906 q -0.52637,0.52637 -0.73145,0.69043 l -1.14844,0.92285 -1.01855,-1.27148 3.21972,-2.56348 h 1.73633 z"
         style="font-weight:bold;font-family:'Open Sans';-inkscape-font-specification:'Open Sans, Bold';text-align:justify;fill:#797995;fill-opacity:1"
         id="path29038" />
      <path
         d="m 700.30975,306.90664 h -2.1123 v -5.7832 l 0.0205,-0.9502 0.0342,-1.03906 q -0.52637,0.52637 -0.73145,0.69043 l -1.14844,0.92285 -1.01855,-1.27148 3.21973,-2.56348 h 1.73632 z"
         style="font-weight:bold;font-family:'Open Sans';-inkscape-font-specification:'Open Sans, Bold';text-align:justify;fill:#797995;fill-opacity:1"
         id="path29040" />
      <path
         d="m 712.06445,306.90664 h -2.1123 v -5.7832 l 0.0205,-0.9502 0.0342,-1.03906 q -0.52637,0.52637 -0.73145,0.69043 l -1.14844,0.92285 -1.01855,-1.27148 3.21972,-2.56348 h 1.73633 z"
         style="font-weight:bold;font-family:'Open Sans';-inkscape-font-specification:'Open Sans, Bold';text-align:justify;fill:#797995;fill-opacity:1"
         id="path29042" />
      <path
         d="m 721.76465,301.90957 q 0,2.61816 -0.86133,3.87598 -0.85449,1.25781 -2.63867,1.25781 -1.72949,0 -2.61133,-1.29883 -0.875,-1.29883 -0.875,-3.83496 0,-2.64551 0.85449,-3.89648 0.85449,-1.25782 2.63184,-1.25782 1.72949,0 2.61133,1.3125 0.88867,1.3125 0.88867,3.8418 z m -4.8877,0 q 0,1.83887 0.31446,2.63867 0.32129,0.79297 1.07324,0.79297 0.73828,0 1.0664,-0.80664 0.32813,-0.80664 0.32813,-2.625 0,-1.83887 -0.33496,-2.63867 -0.32813,-0.80664 -1.05957,-0.80664 -0.74512,0 -1.06641,0.80664 -0.32129,0.7998 -0.32129,2.63867 z"
         style="font-weight:bold;font-family:'Open Sans';-inkscape-font-specification:'Open Sans, Bold';text-align:justify;fill:#797995;fill-opacity:1"
         id="path29044" />
      <path
         d="m 729.75586,301.90957 q 0,2.61816 -0.86133,3.87598 -0.85449,1.25781 -2.63867,1.25781 -1.72949,0 -2.61133,-1.29883 -0.875,-1.29883 -0.875,-3.83496 0,-2.64551 0.85449,-3.89648 0.8545,-1.25782 2.63184,-1.25782 1.72949,0 2.61133,1.3125 0.88867,1.3125 0.88867,3.8418 z m -4.8877,0 q 0,1.83887 0.31446,2.63867 0.32129,0.79297 1.07324,0.79297 0.73828,0 1.06641,-0.80664 0.32812,-0.80664 0.32812,-2.625 0,-1.83887 -0.33496,-2.63867 -0.32813,-0.80664 -1.05957,-0.80664 -0.74512,0 -1.06641,0.80664 -0.32129,0.7998 -0.32129,2.63867 z"
         style="font-weight:bold;font-family:'Open Sans';-inkscape-font-specification:'Open Sans, Bold';text-align:justify;fill:#797995;fill-opacity:1"
         id="path29046" />
      <path
         d="m 737.74707,301.90957 q 0,2.61816 -0.86133,3.87598 -0.85449,1.25781 -2.63867,1.25781 -1.72949,0 -2.61133,-1.29883 -0.875,-1.29883 -0.875,-3.83496 0,-2.64551 0.85449,-3.89648 0.8545,-1.25782 2.63184,-1.25782 1.72949,0 2.61133,1.3125 0.88867,1.3125 0.88867,3.8418 z m -4.8877,0 q 0,1.83887 0.31446,2.63867 0.32129,0.79297 1.07324,0.79297 0.73828,0 1.06641,-0.80664 0.32812,-0.80664 0.32812,-2.625 0,-1.83887 -0.33496,-2.63867 -0.32812,-0.80664 -1.05957,-0.80664 -0.74512,0 -1.06641,0.80664 -0.32129,0.7998 -0.32129,2.63867 z"
         style="font-weight:bold;font-family:'Open Sans';-inkscape-font-specification:'Open Sans, Bold';text-align:justify;fill:#797995;fill-opacity:1"
         id="path29048" />
      <path
         d="m 745.73828,301.90957 q 0,2.61816 -0.86133,3.87598 -0.85449,1.25781 -2.63867,1.25781 -1.72949,0 -2.61133,-1.29883 -0.875,-1.29883 -0.875,-3.83496 0,-2.64551 0.8545,-3.89648 0.85449,-1.25782 2.63183,-1.25782 1.72949,0 2.61133,1.3125 0.88867,1.3125 0.88867,3.8418 z m -4.88769,0 q 0,1.83887 0.31445,2.63867 0.32129,0.79297 1.07324,0.79297 0.73828,0 1.06641,-0.80664 0.32812,-0.80664 0.32812,-2.625 0,-1.83887 -0.33496,-2.63867 -0.32812,-0.80664 -1.05957,-0.80664 -0.74512,0 -1.06641,0.80664 -0.32128,0.7998 -0.32128,2.63867 z"
         style="font-weight:bold;font-family:'Open Sans';-inkscape-font-specification:'Open Sans, Bold';text-align:justify;fill:#797995;fill-opacity:1"
         id="path29050" />
      <path
         d="m 753.72949,301.90957 q 0,2.61816 -0.86133,3.87598 -0.85449,1.25781 -2.63867,1.25781 -1.72949,0 -2.61133,-1.29883 -0.875,-1.29883 -0.875,-3.83496 0,-2.64551 0.8545,-3.89648 0.85449,-1.25782 2.63183,-1.25782 1.72949,0 2.61133,1.3125 0.88867,1.3125 0.88867,3.8418 z m -4.88769,0 q 0,1.83887 0.31445,2.63867 0.32129,0.79297 1.07324,0.79297 0.73828,0 1.06641,-0.80664 0.32812,-0.80664 0.32812,-2.625 0,-1.83887 -0.33496,-2.63867 -0.32812,-0.80664 -1.05957,-0.80664 -0.74512,0 -1.0664,0.80664 -0.32129,0.7998 -0.32129,2.63867 z"
         style="font-weight:bold;font-family:'Open Sans';-inkscape-font-specification:'Open Sans, Bold';text-align:justify;fill:#797995;fill-opacity:1"
         id="path29052" />
      <path
         d="m 413.55469,324.42461 h -2.11231 v -5.7832 l 0.0205,-0.95019 0.0342,-1.03907 q -0.52637,0.52637 -0.73145,0.69043 l -1.14843,0.92286 -1.01856,-1.27149 3.21973,-2.56348 h 1.73633 z"
         style="font-weight:bold;font-family:'Open Sans';-inkscape-font-specification:'Open Sans, Bold';text-align:justify;fill:#797995;fill-opacity:1"
         id="path29054" />
      <path
         d="m 423.25488,319.42754 q 0,2.61817 -0.86133,3.87598 -0.85449,1.25781 -2.63867,1.25781 -1.72949,0 -2.61133,-1.29882 -0.875,-1.29883 -0.875,-3.83497 0,-2.6455 0.8545,-3.89648 0.85449,-1.25781 2.63183,-1.25781 1.72949,0 2.61133,1.3125 0.88867,1.3125 0.88867,3.84179 z m -4.88769,0 q 0,1.83887 0.31445,2.63868 0.32129,0.79297 1.07324,0.79297 0.73828,0 1.06641,-0.80665 0.32812,-0.80664 0.32812,-2.625 0,-1.83886 -0.33496,-2.63867 -0.32812,-0.80664 -1.05957,-0.80664 -0.74511,0 -1.0664,0.80664 -0.32129,0.79981 -0.32129,2.63867 z"
         style="font-weight:bold;font-family:'Open Sans';-inkscape-font-specification:'Open Sans, Bold';text-align:justify;fill:#797995;fill-opacity:1"
         id="path29056" />
      <path
         d="m 429.53711,324.42461 h -2.11231 v -5.7832 l 0.0205,-0.95019 0.0342,-1.03907 q -0.52637,0.52637 -0.73144,0.69043 l -1.14844,0.92286 -1.01856,-1.27149 3.21973,-2.56348 h 1.73633 z"
         style="font-weight:bold;font-family:'Open Sans';-inkscape-font-specification:'Open Sans, Bold';text-align:justify;fill:#797995;fill-opacity:1"
         id="path29058" />
      <path
         d="m 439.2373,319.42754 q 0,2.61817 -0.86132,3.87598 -0.8545,1.25781 -2.63868,1.25781 -1.72949,0 -2.61132,-1.29882 -0.875,-1.29883 -0.875,-3.83497 0,-2.6455 0.85449,-3.89648 0.85449,-1.25781 2.63183,-1.25781 1.7295,0 2.61133,1.3125 0.88867,1.3125 0.88867,3.84179 z m -4.88769,0 q 0,1.83887 0.31445,2.63868 0.32129,0.79297 1.07324,0.79297 0.73829,0 1.06641,-0.80665 0.32813,-0.80664 0.32813,-2.625 0,-1.83886 -0.33497,-2.63867 -0.32812,-0.80664 -1.05957,-0.80664 -0.74511,0 -1.0664,0.80664 -0.32129,0.79981 -0.32129,2.63867 z"
         style="font-weight:bold;font-family:'Open Sans';-inkscape-font-specification:'Open Sans, Bold';text-align:justify;fill:#797995;fill-opacity:1"
         id="path29060" />
      <path
         d="m 445.51953,324.42461 h -2.1123 v -5.7832 l 0.0205,-0.95019 0.0342,-1.03907 q -0.52636,0.52637 -0.73144,0.69043 l -1.14844,0.92286 -1.01855,-1.27149 3.21972,-2.56348 h 1.73633 z"
         style="font-weight:bold;font-family:'Open Sans';-inkscape-font-specification:'Open Sans, Bold';text-align:justify;fill:#797995;fill-opacity:1"
         id="path29062" />
      <path
         d="m 453.51074,324.42461 h -2.1123 v -5.7832 l 0.0205,-0.95019 0.0342,-1.03907 q -0.52636,0.52637 -0.73144,0.69043 l -1.14844,0.92286 -1.01855,-1.27149 3.21972,-2.56348 h 1.73633 z"
         style="font-weight:bold;font-family:'Open Sans';-inkscape-font-specification:'Open Sans, Bold';text-align:justify;fill:#797995;fill-opacity:1"
         id="path29064" />
      <path
         d="m 461.50195,324.42461 h -2.1123 v -5.7832 l 0.0205,-0.95019 0.0342,-1.03907 q -0.52637,0.52637 -0.73145,0.69043 l -1.14844,0.92286 -1.01855,-1.27149 3.21972,-2.56348 h 1.73633 z"
         style="font-weight:bold;font-family:'Open Sans';-inkscape-font-specification:'Open Sans, Bold';text-align:justify;fill:#797995;fill-opacity:1"
         id="path29066" />
      <path
         d="m 473.12988,324.42461 h -2.1123 v -5.7832 l 0.0205,-0.95019 0.0342,-1.03907 q -0.52637,0.52637 -0.73145,0.69043 l -1.14844,0.92286 -1.01855,-1.27149 3.21972,-2.56348 h 1.73633 z"
         style="font-weight:bold;font-family:'Open Sans';-inkscape-font-specification:'Open Sans, Bold';text-align:justify;fill:#797995;fill-opacity:1"
         id="path29068" />
      <path
         d="m 481.12109,324.42461 h -2.1123 v -5.7832 l 0.0205,-0.95019 0.0342,-1.03907 q -0.52637,0.52637 -0.73145,0.69043 l -1.14844,0.92286 -1.01855,-1.27149 3.21973,-2.56348 h 1.73632 z"
         style="font-weight:bold;font-family:'Open Sans';-inkscape-font-specification:'Open Sans, Bold';text-align:justify;fill:#797995;fill-opacity:1"
         id="path29070" />
      <path
         d="m 490.82129,319.42754 q 0,2.61817 -0.86133,3.87598 -0.85449,1.25781 -2.63867,1.25781 -1.72949,0 -2.61133,-1.29882 -0.875,-1.29883 -0.875,-3.83497 0,-2.6455 0.85449,-3.89648 0.8545,-1.25781 2.63184,-1.25781 1.72949,0 2.61133,1.3125 0.88867,1.3125 0.88867,3.84179 z m -4.8877,0 q 0,1.83887 0.31446,2.63868 0.32129,0.79297 1.07324,0.79297 0.73828,0 1.06641,-0.80665 0.32812,-0.80664 0.32812,-2.625 0,-1.83886 -0.33496,-2.63867 -0.32813,-0.80664 -1.05957,-0.80664 -0.74512,0 -1.06641,0.80664 -0.32129,0.79981 -0.32129,2.63867 z"
         style="font-weight:bold;font-family:'Open Sans';-inkscape-font-specification:'Open Sans, Bold';text-align:justify;fill:#797995;fill-opacity:1"
         id="path29072" />
      <path
         d="m 497.10352,324.42461 h -2.11231 v -5.7832 l 0.0205,-0.95019 0.0342,-1.03907 q -0.52637,0.52637 -0.73145,0.69043 l -1.14843,0.92286 -1.01856,-1.27149 3.21973,-2.56348 h 1.73633 z"
         style="font-weight:bold;font-family:'Open Sans';-inkscape-font-specification:'Open Sans, Bold';text-align:justify;fill:#797995;fill-opacity:1"
         id="path29074" />
      <path
         d="m 505.09473,324.42461 h -2.11231 v -5.7832 l 0.0205,-0.95019 0.0342,-1.03907 q -0.52637,0.52637 -0.73145,0.69043 l -1.14843,0.92286 -1.01856,-1.27149 3.21973,-2.56348 h 1.73633 z"
         style="font-weight:bold;font-family:'Open Sans';-inkscape-font-specification:'Open Sans, Bold';text-align:justify;fill:#797995;fill-opacity:1"
         id="path29076" />
      <path
         d="m 513.08594,324.42461 h -2.11231 v -5.7832 l 0.0205,-0.95019 0.0342,-1.03907 q -0.52637,0.52637 -0.73145,0.69043 l -1.14843,0.92286 -1.01856,-1.27149 3.21973,-2.56348 h 1.73633 z"
         style="font-weight:bold;font-family:'Open Sans';-inkscape-font-specification:'Open Sans, Bold';text-align:justify;fill:#797995;fill-opacity:1"
         id="path29078" />
      <path
         d="m 521.07715,324.42461 h -2.11231 v -5.7832 l 0.0205,-0.95019 0.0342,-1.03907 q -0.52637,0.52637 -0.73144,0.69043 l -1.14844,0.92286 -1.01856,-1.27149 3.21973,-2.56348 h 1.73633 z"
         style="font-weight:bold;font-family:'Open Sans';-inkscape-font-specification:'Open Sans, Bold';text-align:justify;fill:#797995;fill-opacity:1"
         id="path29080" />
      <path
         d="m 532.70508,324.42461 h -2.11231 v -5.7832 l 0.0205,-0.95019 0.0342,-1.03907 q -0.52637,0.52637 -0.73144,0.69043 l -1.14844,0.92286 -1.01856,-1.27149 3.21973,-2.56348 h 1.73633 z"
         style="font-weight:bold;font-family:'Open Sans';-inkscape-font-specification:'Open Sans, Bold';text-align:justify;fill:#797995;fill-opacity:1"
         id="path29082" />
      <path
         d="m 540.69629,324.42461 h -2.11231 v -5.7832 l 0.0205,-0.95019 0.0342,-1.03907 q -0.52637,0.52637 -0.73144,0.69043 l -1.14844,0.92286 -1.01856,-1.27149 3.21973,-2.56348 h 1.73633 z"
         style="font-weight:bold;font-family:'Open Sans';-inkscape-font-specification:'Open Sans, Bold';text-align:justify;fill:#797995;fill-opacity:1"
         id="path29084" />
      <path
         d="m 548.6875,324.42461 h -2.1123 v -5.7832 l 0.0205,-0.95019 0.0342,-1.03907 q -0.52636,0.52637 -0.73144,0.69043 l -1.14844,0.92286 -1.01855,-1.27149 3.21972,-2.56348 h 1.73633 z"
         style="font-weight:bold;font-family:'Open Sans';-inkscape-font-specification:'Open Sans, Bold';text-align:justify;fill:#797995;fill-opacity:1"
         id="path29086" />
      <path
         d="m 558.3877,319.42754 q 0,2.61817 -0.86133,3.87598 -0.8545,1.25781 -2.63867,1.25781 -1.7295,0 -2.61133,-1.29882 -0.875,-1.29883 -0.875,-3.83497 0,-2.6455 0.85449,-3.89648 0.85449,-1.25781 2.63184,-1.25781 1.72949,0 2.61132,1.3125 0.88868,1.3125 0.88868,3.84179 z m -4.8877,0 q 0,1.83887 0.31445,2.63868 0.32129,0.79297 1.07325,0.79297 0.73828,0 1.0664,-0.80665 0.32813,-0.80664 0.32813,-2.625 0,-1.83886 -0.33496,-2.63867 -0.32813,-0.80664 -1.05957,-0.80664 -0.74512,0 -1.06641,0.80664 -0.32129,0.79981 -0.32129,2.63867 z"
         style="font-weight:bold;font-family:'Open Sans';-inkscape-font-specification:'Open Sans, Bold';text-align:justify;fill:#797995;fill-opacity:1"
         id="path29088" />
      <path
         d="m 566.37891,319.42754 q 0,2.61817 -0.86133,3.87598 -0.85449,1.25781 -2.63867,1.25781 -1.7295,0 -2.61133,-1.29882 -0.875,-1.29883 -0.875,-3.83497 0,-2.6455 0.85449,-3.89648 0.85449,-1.25781 2.63184,-1.25781 1.72949,0 2.61132,1.3125 0.88868,1.3125 0.88868,3.84179 z m -4.8877,0 q 0,1.83887 0.31445,2.63868 0.32129,0.79297 1.07325,0.79297 0.73828,0 1.0664,-0.80665 0.32813,-0.80664 0.32813,-2.625 0,-1.83886 -0.33496,-2.63867 -0.32813,-0.80664 -1.05957,-0.80664 -0.74512,0 -1.06641,0.80664 -0.32129,0.79981 -0.32129,2.63867 z"
         style="font-weight:bold;font-family:'Open Sans';-inkscape-font-specification:'Open Sans, Bold';text-align:justify;fill:#797995;fill-opacity:1"
         id="path29090" />
      <path
         d="m 572.66113,324.42461 h -2.1123 v -5.7832 l 0.0205,-0.95019 0.0342,-1.03907 q -0.52637,0.52637 -0.73145,0.69043 l -1.14844,0.92286 -1.01855,-1.27149 3.21972,-2.56348 h 1.73633 z"
         style="font-weight:bold;font-family:'Open Sans';-inkscape-font-specification:'Open Sans, Bold';text-align:justify;fill:#797995;fill-opacity:1"
         id="path29092" />
      <path
         d="m 582.36133,319.42754 q 0,2.61817 -0.86133,3.87598 -0.85449,1.25781 -2.63867,1.25781 -1.72949,0 -2.61133,-1.29882 -0.875,-1.29883 -0.875,-3.83497 0,-2.6455 0.85449,-3.89648 0.85449,-1.25781 2.63184,-1.25781 1.72949,0 2.61133,1.3125 0.88867,1.3125 0.88867,3.84179 z m -4.8877,0 q 0,1.83887 0.31446,2.63868 0.32128,0.79297 1.07324,0.79297 0.73828,0 1.0664,-0.80665 0.32813,-0.80664 0.32813,-2.625 0,-1.83886 -0.33496,-2.63867 -0.32813,-0.80664 -1.05957,-0.80664 -0.74512,0 -1.06641,0.80664 -0.32129,0.79981 -0.32129,2.63867 z"
         style="font-weight:bold;font-family:'Open Sans';-inkscape-font-specification:'Open Sans, Bold';text-align:justify;fill:#797995;fill-opacity:1"
         id="path29094" />
      <path
         d="m 592.28027,324.42461 h -2.1123 v -5.7832 l 0.0205,-0.95019 0.0342,-1.03907 q -0.52637,0.52637 -0.73145,0.69043 l -1.14844,0.92286 -1.01855,-1.27149 3.21973,-2.56348 h 1.73632 z"
         style="font-weight:bold;font-family:'Open Sans';-inkscape-font-specification:'Open Sans, Bold';text-align:justify;fill:#797995;fill-opacity:1"
         id="path29096" />
      <path
         d="m 600.27148,324.42461 h -2.1123 v -5.7832 l 0.0205,-0.95019 0.0342,-1.03907 q -0.52637,0.52637 -0.73145,0.69043 l -1.14844,0.92286 -1.01855,-1.27149 3.21973,-2.56348 h 1.73632 z"
         style="font-weight:bold;font-family:'Open Sans';-inkscape-font-specification:'Open Sans, Bold';text-align:justify;fill:#797995;fill-opacity:1"
         id="path29098" />
      <path
         d="m 609.97168,319.42754 q 0,2.61817 -0.86133,3.87598 -0.85449,1.25781 -2.63867,1.25781 -1.72949,0 -2.61133,-1.29882 -0.875,-1.29883 -0.875,-3.83497 0,-2.6455 0.85449,-3.89648 0.8545,-1.25781 2.63184,-1.25781 1.72949,0 2.61133,1.3125 0.88867,1.3125 0.88867,3.84179 z m -4.8877,0 q 0,1.83887 0.31446,2.63868 0.32129,0.79297 1.07324,0.79297 0.73828,0 1.06641,-0.80665 0.32812,-0.80664 0.32812,-2.625 0,-1.83886 -0.33496,-2.63867 -0.32813,-0.80664 -1.05957,-0.80664 -0.74512,0 -1.06641,0.80664 -0.32129,0.79981 -0.32129,2.63867 z"
         style="font-weight:bold;font-family:'Open Sans';-inkscape-font-specification:'Open Sans, Bold';text-align:justify;fill:#797995;fill-opacity:1"
         id="path29100" />
      <path
         d="m 616.25391,324.42461 h -2.11231 v -5.7832 l 0.0205,-0.95019 0.0342,-1.03907 q -0.52637,0.52637 -0.73145,0.69043 l -1.14843,0.92286 -1.01856,-1.27149 3.21973,-2.56348 h 1.73633 z"
         style="font-weight:bold;font-family:'Open Sans';-inkscape-font-specification:'Open Sans, Bold';text-align:justify;fill:#797995;fill-opacity:1"
         id="path29102" />
      <path
         d="m 624.24512,324.42461 h -2.11231 v -5.7832 l 0.0205,-0.95019 0.0342,-1.03907 q -0.52637,0.52637 -0.73145,0.69043 l -1.14843,0.92286 -1.01856,-1.27149 3.21973,-2.56348 h 1.73633 z"
         style="font-weight:bold;font-family:'Open Sans';-inkscape-font-specification:'Open Sans, Bold';text-align:justify;fill:#797995;fill-opacity:1"
         id="path29104" />
      <path
         d="m 633.94531,319.42754 q 0,2.61817 -0.86133,3.87598 -0.85449,1.25781 -2.63867,1.25781 -1.72949,0 -2.61133,-1.29882 -0.875,-1.29883 -0.875,-3.83497 0,-2.6455 0.8545,-3.89648 0.85449,-1.25781 2.63183,-1.25781 1.72949,0 2.61133,1.3125 0.88867,1.3125 0.88867,3.84179 z m -4.88769,0 q 0,1.83887 0.31445,2.63868 0.32129,0.79297 1.07324,0.79297 0.73828,0 1.06641,-0.80665 0.32812,-0.80664 0.32812,-2.625 0,-1.83886 -0.33496,-2.63867 -0.32812,-0.80664 -1.05957,-0.80664 -0.74511,0 -1.0664,0.80664 -0.32129,0.79981 -0.32129,2.63867 z"
         style="font-weight:bold;font-family:'Open Sans';-inkscape-font-specification:'Open Sans, Bold';text-align:justify;fill:#797995;fill-opacity:1"
         id="path29106" />
      <path
         d="m 641.93652,319.42754 q 0,2.61817 -0.86132,3.87598 -0.8545,1.25781 -2.63868,1.25781 -1.72949,0 -2.61132,-1.29882 -0.875,-1.29883 -0.875,-3.83497 0,-2.6455 0.85449,-3.89648 0.85449,-1.25781 2.63183,-1.25781 1.7295,0 2.61133,1.3125 0.88867,1.3125 0.88867,3.84179 z m -4.88769,0 q 0,1.83887 0.31445,2.63868 0.32129,0.79297 1.07324,0.79297 0.73828,0 1.06641,-0.80665 0.32812,-0.80664 0.32812,-2.625 0,-1.83886 -0.33496,-2.63867 -0.32812,-0.80664 -1.05957,-0.80664 -0.74511,0 -1.0664,0.80664 -0.32129,0.79981 -0.32129,2.63867 z"
         style="font-weight:bold;font-family:'Open Sans';-inkscape-font-specification:'Open Sans, Bold';text-align:justify;fill:#797995;fill-opacity:1"
         id="path29108" />
      <path
         d="m 651.85547,324.42461 h -2.11231 v -5.7832 l 0.0205,-0.95019 0.0342,-1.03907 q -0.52637,0.52637 -0.73144,0.69043 l -1.14844,0.92286 -1.01856,-1.27149 3.21973,-2.56348 h 1.73633 z"
         style="font-weight:bold;font-family:'Open Sans';-inkscape-font-specification:'Open Sans, Bold';text-align:justify;fill:#797995;fill-opacity:1"
         id="path29110" />
      <path
         d="m 659.84668,324.42461 h -2.11231 v -5.7832 l 0.0205,-0.95019 0.0342,-1.03907 q -0.52636,0.52637 -0.73144,0.69043 l -1.14844,0.92286 -1.01856,-1.27149 3.21973,-2.56348 h 1.73633 z"
         style="font-weight:bold;font-family:'Open Sans';-inkscape-font-specification:'Open Sans, Bold';text-align:justify;fill:#797995;fill-opacity:1"
         id="path29112" />
      <path
         d="m 669.54687,319.42754 q 0,2.61817 -0.86132,3.87598 -0.8545,1.25781 -2.63868,1.25781 -1.72949,0 -2.61132,-1.29882 -0.875,-1.29883 -0.875,-3.83497 0,-2.6455 0.85449,-3.89648 0.85449,-1.25781 2.63183,-1.25781 1.7295,0 2.61133,1.3125 0.88867,1.3125 0.88867,3.84179 z m -4.88769,0 q 0,1.83887 0.31445,2.63868 0.32129,0.79297 1.07324,0.79297 0.73829,0 1.06641,-0.80665 0.32813,-0.80664 0.32813,-2.625 0,-1.83886 -0.33496,-2.63867 -0.32813,-0.80664 -1.05958,-0.80664 -0.74511,0 -1.0664,0.80664 -0.32129,0.79981 -0.32129,2.63867 z"
         style="font-weight:bold;font-family:'Open Sans';-inkscape-font-specification:'Open Sans, Bold';text-align:justify;fill:#797995;fill-opacity:1"
         id="path29114" />
      <path
         d="m 677.53809,319.42754 q 0,2.61817 -0.86133,3.87598 -0.85449,1.25781 -2.63867,1.25781 -1.7295,0 -2.61133,-1.29882 -0.875,-1.29883 -0.875,-3.83497 0,-2.6455 0.85449,-3.89648 0.85449,-1.25781 2.63184,-1.25781 1.72949,0 2.61132,1.3125 0.88868,1.3125 0.88868,3.84179 z m -4.8877,0 q 0,1.83887 0.31445,2.63868 0.32129,0.79297 1.07325,0.79297 0.73828,0 1.0664,-0.80665 0.32813,-0.80664 0.32813,-2.625 0,-1.83886 -0.33496,-2.63867 -0.32813,-0.80664 -1.05957,-0.80664 -0.74512,0 -1.06641,0.80664 -0.32129,0.79981 -0.32129,2.63867 z"
         style="font-weight:bold;font-family:'Open Sans';-inkscape-font-specification:'Open Sans, Bold';text-align:justify;fill:#797995;fill-opacity:1"
         id="path29116" />
      <path
         d="m 683.82031,324.42461 h -2.1123 v -5.7832 l 0.0205,-0.95019 0.0342,-1.03907 q -0.52637,0.52637 -0.73145,0.69043 l -1.14844,0.92286 -1.01855,-1.27149 3.21972,-2.56348 h 1.73633 z"
         style="font-weight:bold;font-family:'Open Sans';-inkscape-font-specification:'Open Sans, Bold';text-align:justify;fill:#797995;fill-opacity:1"
         id="path29118" />
      <path
         d="m 693.52051,319.42754 q 0,2.61817 -0.86133,3.87598 -0.85449,1.25781 -2.63867,1.25781 -1.72949,0 -2.61133,-1.29882 -0.875,-1.29883 -0.875,-3.83497 0,-2.6455 0.85449,-3.89648 0.85449,-1.25781 2.63184,-1.25781 1.72949,0 2.61133,1.3125 0.88867,1.3125 0.88867,3.84179 z m -4.8877,0 q 0,1.83887 0.31446,2.63868 0.32128,0.79297 1.07324,0.79297 0.73828,0 1.0664,-0.80665 0.32813,-0.80664 0.32813,-2.625 0,-1.83886 -0.33496,-2.63867 -0.32813,-0.80664 -1.05957,-0.80664 -0.74512,0 -1.06641,0.80664 -0.32129,0.79981 -0.32129,2.63867 z"
         style="font-weight:bold;font-family:'Open Sans';-inkscape-font-specification:'Open Sans, Bold';text-align:justify;fill:#797995;fill-opacity:1"
         id="path29120" />
      <path
         d="m 701.51172,319.42754 q 0,2.61817 -0.86133,3.87598 -0.85449,1.25781 -2.63867,1.25781 -1.72949,0 -2.61133,-1.29882 -0.875,-1.29883 -0.875,-3.83497 0,-2.6455 0.85449,-3.89648 0.85449,-1.25781 2.63184,-1.25781 1.72949,0 2.61133,1.3125 0.88867,1.3125 0.88867,3.84179 z m -4.8877,0 q 0,1.83887 0.31446,2.63868 0.32129,0.79297 1.07324,0.79297 0.73828,0 1.0664,-0.80665 0.32813,-0.80664 0.32813,-2.625 0,-1.83886 -0.33496,-2.63867 -0.32813,-0.80664 -1.05957,-0.80664 -0.74512,0 -1.06641,0.80664 -0.32129,0.79981 -0.32129,2.63867 z"
         style="font-weight:bold;font-family:'Open Sans';-inkscape-font-specification:'Open Sans, Bold';text-align:justify;fill:#797995;fill-opacity:1"
         id="path29122" />
      <path
         d="m 711.43066,324.42461 h -2.1123 v -5.7832 l 0.0205,-0.95019 0.0342,-1.03907 q -0.52637,0.52637 -0.73145,0.69043 l -1.14844,0.92286 -1.01855,-1.27149 3.21973,-2.56348 h 1.73632 z"
         style="font-weight:bold;font-family:'Open Sans';-inkscape-font-specification:'Open Sans, Bold';text-align:justify;fill:#797995;fill-opacity:1"
         id="path29124" />
      <path
         d="m 721.13086,319.42754 q 0,2.61817 -0.86133,3.87598 -0.85449,1.25781 -2.63867,1.25781 -1.72949,0 -2.61133,-1.29882 -0.875,-1.29883 -0.875,-3.83497 0,-2.6455 0.85449,-3.89648 0.8545,-1.25781 2.63184,-1.25781 1.72949,0 2.61133,1.3125 0.88867,1.3125 0.88867,3.84179 z m -4.8877,0 q 0,1.83887 0.31446,2.63868 0.32129,0.79297 1.07324,0.79297 0.73828,0 1.06641,-0.80665 0.32812,-0.80664 0.32812,-2.625 0,-1.83886 -0.33496,-2.63867 -0.32813,-0.80664 -1.05957,-0.80664 -0.74512,0 -1.06641,0.80664 -0.32129,0.79981 -0.32129,2.63867 z"
         style="font-weight:bold;font-family:'Open Sans';-inkscape-font-specification:'Open Sans, Bold';text-align:justify;fill:#797995;fill-opacity:1"
         id="path29126" />
      <path
         d="m 729.12207,319.42754 q 0,2.61817 -0.86133,3.87598 -0.85449,1.25781 -2.63867,1.25781 -1.72949,0 -2.61133,-1.29882 -0.875,-1.29883 -0.875,-3.83497 0,-2.6455 0.85449,-3.89648 0.8545,-1.25781 2.63184,-1.25781 1.72949,0 2.61133,1.3125 0.88867,1.3125 0.88867,3.84179 z m -4.8877,0 q 0,1.83887 0.31446,2.63868 0.32129,0.79297 1.07324,0.79297 0.73828,0 1.06641,-0.80665 0.32812,-0.80664 0.32812,-2.625 0,-1.83886 -0.33496,-2.63867 -0.32812,-0.80664 -1.05957,-0.80664 -0.74512,0 -1.06641,0.80664 -0.32129,0.79981 -0.32129,2.63867 z"
         style="font-weight:bold;font-family:'Open Sans';-inkscape-font-specification:'Open Sans, Bold';text-align:justify;fill:#797995;fill-opacity:1"
         id="path29128" />
      <path
         d="m 737.11328,319.42754 q 0,2.61817 -0.86133,3.87598 -0.85449,1.25781 -2.63867,1.25781 -1.72949,0 -2.61133,-1.29882 -0.875,-1.29883 -0.875,-3.83497 0,-2.6455 0.8545,-3.89648 0.85449,-1.25781 2.63183,-1.25781 1.72949,0 2.61133,1.3125 0.88867,1.3125 0.88867,3.84179 z m -4.88769,0 q 0,1.83887 0.31445,2.63868 0.32129,0.79297 1.07324,0.79297 0.73828,0 1.06641,-0.80665 0.32812,-0.80664 0.32812,-2.625 0,-1.83886 -0.33496,-2.63867 -0.32812,-0.80664 -1.05957,-0.80664 -0.74512,0 -1.06641,0.80664 -0.32128,0.79981 -0.32128,2.63867 z"
         style="font-weight:bold;font-family:'Open Sans';-inkscape-font-specification:'Open Sans, Bold';text-align:justify;fill:#797995;fill-opacity:1"
         id="path29130" />
      <path
         d="m 745.10449,319.42754 q 0,2.61817 -0.86133,3.87598 -0.85449,1.25781 -2.63867,1.25781 -1.72949,0 -2.61133,-1.29882 -0.875,-1.29883 -0.875,-3.83497 0,-2.6455 0.8545,-3.89648 0.85449,-1.25781 2.63183,-1.25781 1.72949,0 2.61133,1.3125 0.88867,1.3125 0.88867,3.84179 z m -4.88769,0 q 0,1.83887 0.31445,2.63868 0.32129,0.79297 1.07324,0.79297 0.73828,0 1.06641,-0.80665 0.32812,-0.80664 0.32812,-2.625 0,-1.83886 -0.33496,-2.63867 -0.32812,-0.80664 -1.05957,-0.80664 -0.74512,0 -1.0664,0.80664 -0.32129,0.79981 -0.32129,2.63867 z"
         style="font-weight:bold;font-family:'Open Sans';-inkscape-font-specification:'Open Sans, Bold';text-align:justify;fill:#797995;fill-opacity:1"
         id="path29132" />
      <path
         d="m 751.38672,324.42461 h -2.11231 v -5.7832 l 0.0205,-0.95019 0.0342,-1.03907 q -0.52637,0.52637 -0.73144,0.69043 l -1.14844,0.92286 -1.01856,-1.27149 3.21973,-2.56348 h 1.73633 z"
         style="font-weight:bold;font-family:'Open Sans';-inkscape-font-specification:'Open Sans, Bold';text-align:justify;fill:#797995;fill-opacity:1"
         id="path29134" />
    </g>
    <g
       aria-label="Hello World!"
       id="text2769"
       style="font-size:75.3555px;line-height:1.25;stroke-width:1.0466;fill:#797995;fill-opacity:1">
      <path
         d="M 782.40627,516.99335 H 771.03672 V 493.77591 H 749.7326 v 23.21744 h -11.40635 v -53.79382 h 11.40635 v 21.08335 h 21.30412 v -21.08335 h 11.36955 z"
         style="font-weight:bold;font-family:'Open Sans';-inkscape-font-specification:'Open Sans, Bold';fill:#797995;fill-opacity:1"
         id="path29137" />
      <path
         d="m 812.13638,483.06865 q -3.56909,0 -5.5928,2.28127 -2.0237,2.24448 -2.31806,6.40228 h 15.74812 q -0.0736,-4.1578 -2.17088,-6.40228 -2.0973,-2.28127 -5.66638,-2.28127 z m 1.58217,34.66059 q -9.93457,0 -15.52736,-5.48241 -5.59279,-5.4824 -5.59279,-15.52735 0,-10.3393 5.15126,-15.96889 5.18805,-5.66638 14.31313,-5.66638 8.72033,0 13.57723,4.96728 4.8569,4.96728 4.8569,13.72442 v 5.44561 h -26.52896 q 0.18397,4.78331 2.83319,7.46932 2.64921,2.68601 7.43252,2.68601 3.71626,0 7.02779,-0.77269 3.31152,-0.77269 6.91739,-2.46524 v 8.68354 q -2.94357,1.47179 -6.29189,2.17089 -3.34831,0.73589 -8.16841,0.73589 z"
         style="font-weight:bold;font-family:'Open Sans';-inkscape-font-specification:'Open Sans, Bold';fill:#797995;fill-opacity:1"
         id="path29139" />
      <path
         d="M 850.84437,516.99335 H 839.622 v -57.25252 h 11.22237 z"
         style="font-weight:bold;font-family:'Open Sans';-inkscape-font-specification:'Open Sans, Bold';fill:#797995;fill-opacity:1"
         id="path29141" />
      <path
         d="m 873.84105,516.99335 h -11.22238 v -57.25252 h 11.22238 z"
         style="font-weight:bold;font-family:'Open Sans';-inkscape-font-specification:'Open Sans, Bold';fill:#797995;fill-opacity:1"
         id="path29143" />
      <path
         d="m 894.55645,496.35153 q 0,6.10792 1.98691,9.23547 2.02371,3.12754 6.54946,3.12754 4.48895,0 6.43906,-3.09075 1.98692,-3.12755 1.98692,-9.27226 0,-6.10791 -1.98692,-9.16187 -1.98691,-3.05396 -6.51265,-3.05396 -4.48895,0 -6.47587,3.05396 -1.98691,3.01716 -1.98691,9.16187 z m 28.44229,0 q 0,10.04495 -5.29844,15.71133 -5.29843,5.66638 -14.75466,5.66638 -5.92395,0 -10.44969,-2.57563 -4.52575,-2.61242 -6.9542,-7.46932 -2.42844,-4.85689 -2.42844,-11.33276 0,-10.08174 5.26163,-15.67453 5.26164,-5.59279 14.79146,-5.59279 5.92395,0 10.44969,2.57563 4.52575,2.57562 6.9542,7.39573 2.42845,4.8201 2.42845,11.29596 z"
         style="font-weight:bold;font-family:'Open Sans';-inkscape-font-specification:'Open Sans, Bold';fill:#797995;fill-opacity:1"
         id="path29145" />
      <path
         d="m 1005.1245,516.99335 h -12.98856 l -7.28535,-28.25832 q -0.40474,-1.50858 -1.3982,-6.2183 -0.95666,-4.74651 -1.10384,-6.36547 -0.22076,1.98691 -1.10384,6.40227 -0.88307,4.37857 -1.3614,6.25509 l -7.24855,28.18473 h -12.95173 l -13.72441,-53.79382 h 11.22237 l 6.88061,29.36215 q 1.80294,8.13163 2.61242,14.09236 0.22077,-2.09729 0.99346,-6.47586 0.80948,-4.41536 1.50858,-6.84381 l 7.83727,-30.13484 h 10.78084 l 7.83726,30.13484 q 0.51513,2.02371 1.28782,6.18151 0.77268,4.15779 1.17743,7.13816 0.36794,-2.86998 1.17743,-7.13816 0.80949,-4.30498 1.47179,-6.9542 l 6.8438,-29.36215 h 11.2224 z"
         style="font-weight:bold;font-family:'Open Sans';-inkscape-font-specification:'Open Sans, Bold';fill:#797995;fill-opacity:1"
         id="path29147" />
      <path
         d="m 1033.6403,496.35153 q 0,6.10792 1.9869,9.23547 2.0237,3.12754 6.5495,3.12754 4.4889,0 6.4391,-3.09075 1.9869,-3.12755 1.9869,-9.27226 0,-6.10791 -1.9869,-9.16187 -1.987,-3.05396 -6.5127,-3.05396 -4.4889,0 -6.4759,3.05396 -1.9869,3.01716 -1.9869,9.16187 z m 28.4423,0 q 0,10.04495 -5.2984,15.71133 -5.2985,5.66638 -14.7547,5.66638 -5.9239,0 -10.4497,-2.57563 -4.5257,-2.61242 -6.9542,-7.46932 -2.4284,-4.85689 -2.4284,-11.33276 0,-10.08174 5.2616,-15.67453 5.2617,-5.59279 14.7915,-5.59279 5.9239,0 10.4497,2.57563 4.5257,2.57562 6.9542,7.39573 2.4284,4.8201 2.4284,11.29596 z"
         style="font-weight:bold;font-family:'Open Sans';-inkscape-font-specification:'Open Sans, Bold';fill:#797995;fill-opacity:1"
         id="path29149" />
      <path
         d="m 1094.3148,475.08421 q 2.2812,0 3.7898,0.33115 l -0.8463,10.52328 q -1.3614,-0.36795 -3.3115,-0.36795 -5.372,0 -8.3892,2.7596 -2.9803,2.7596 -2.9803,7.72689 v 20.93617 h -11.2224 V 475.8569 h 8.4996 l 1.6557,6.9174 h 0.5519 q 1.9134,-3.4587 5.1513,-5.556 3.2747,-2.13409 7.1014,-2.13409 z"
         style="font-weight:bold;font-family:'Open Sans';-inkscape-font-specification:'Open Sans, Bold';fill:#797995;fill-opacity:1"
         id="path29151" />
      <path
         d="m 1116.7963,516.99335 h -11.2224 v -57.25252 h 11.2224 z"
         style="font-weight:bold;font-family:'Open Sans';-inkscape-font-specification:'Open Sans, Bold';fill:#797995;fill-opacity:1"
         id="path29153" />
      <path
         d="m 1141.5959,517.72924 q -7.2485,0 -11.4063,-5.62958 -4.121,-5.62959 -4.121,-15.60095 0,-10.11853 4.1946,-15.74812 4.2314,-5.66638 11.6271,-5.66638 7.7637,0 11.8479,6.03433 h 0.3679 q -0.8463,-4.59934 -0.8463,-8.20522 v -13.17249 h 11.2592 v 57.25252 h -8.6099 l -2.1709,-5.33523 h -0.4784 q -3.8266,6.07112 -11.6639,6.07112 z m 3.9371,-8.94111 q 4.3049,0 6.2919,-2.50203 2.0237,-2.50204 2.2076,-8.49957 v -1.21423 q 0,-6.62304 -2.0605,-9.49303 -2.0237,-2.86998 -6.623,-2.86998 -3.7531,0 -5.8504,3.20114 -2.0605,3.16434 -2.0605,9.23546 0,6.07112 2.0973,9.12508 2.0973,3.01716 5.9976,3.01716 z"
         style="font-weight:bold;font-family:'Open Sans';-inkscape-font-specification:'Open Sans, Bold';fill:#797995;fill-opacity:1"
         id="path29155" />
      <path
         d="m 1185.6759,499.14793 h -8.9779 l -1.8765,-35.9484 h 12.731 z m -11.0016,12.58378 q 0,-3.09075 1.6558,-4.67293 1.6558,-1.58217 4.8201,-1.58217 3.054,0 4.7097,1.61897 1.6926,1.61896 1.6926,4.63613 0,2.90678 -1.6926,4.59933 -1.6925,1.65576 -4.7097,1.65576 -3.0908,0 -4.7833,-1.61896 -1.6926,-1.65576 -1.6926,-4.63613 z"
         style="font-weight:bold;font-family:'Open Sans';-inkscape-font-specification:'Open Sans, Bold';fill:#797995;fill-opacity:1"
         id="path29157" />
    </g>
  </g>
</svg>
