<?xml version="1.0" encoding="UTF-8" standalone="no"?>
<!-- Created with Inkscape (http://www.inkscape.org/) -->

<svg
   version="1.1"
   id="svg2"
   width="512"
   height="512"
   viewBox="0 0 512 512"
   xmlns="http://www.w3.org/2000/svg"
   xmlns:svg="http://www.w3.org/2000/svg">
  <defs
     id="defs6" />
  <rect
     style="display:none;opacity:0.05;fill:none;stroke:#818181;stroke-width:10.5493;stroke-opacity:1"
     id="rect1099"
     width="76.180122"
     height="76.180138"
     x="91.439789"
     y="91.439781"
     rx="2.2009101"
     ry="5.2248907" />
  <rect
     style="display:none;opacity:0.4;fill:none;stroke:#d7d7d7;stroke-width:6.11938;stroke-opacity:1"
     id="rect1099-8"
     width="44.190041"
     height="44.190044"
     x="107.43482"
     y="107.43482"
     rx="2.2009101"
     ry="5.2248907" />
  <rect
     style="display:none;opacity:0.05;fill:none;stroke:#818181;stroke-width:10.5493;stroke-opacity:1"
     id="rect1099-0"
     width="76.180122"
     height="76.180138"
     x="344.3801"
     y="344.38013"
     rx="2.2009101"
     ry="5.2248907" />
  <rect
     style="display:none;opacity:0.4;fill:none;stroke:#d7d7d7;stroke-width:6.11938;stroke-opacity:1"
     id="rect1099-8-9"
     width="44.190041"
     height="44.190044"
     x="360.37512"
     y="360.37512"
     rx="2.2009101"
     ry="5.2248907" />
  <path
     style="opacity:0.05;fill:#888a85;stroke:none;stroke-width:7.75506"
     id="path994"
     d="m 67.169215,82.850107 -12.390401,-9.750472 -15.056515,4.679222 5.444407,-14.797035 -9.102924,-12.873639 15.75523,0.605404 9.430599,-12.635566 4.292861,15.171192 14.931355,5.064431 -13.102099,8.770909 z" />
  <path
     style="opacity:0.05;fill:#888a85;stroke:none;stroke-width:10.4714"
     id="path994-2"
     d="m 238.0119,418.46938 -24.34099,7.16833 -7.89417,24.11536 -14.33927,-20.93451 -25.3745,-0.0558 15.47883,-20.10658 -7.78814,-24.14981 23.90572,8.50796 20.56117,-14.86965 -0.70429,25.36479 z" />
  <path
     style="opacity:0.05;fill:#888a85;stroke:none;stroke-width:5.76005"
     id="path994-2-93"
     d="m 79.975753,466.11189 -13.389358,3.94312 -4.342382,13.26524 -7.887666,-11.51554 -13.957865,-0.0307 8.514509,-11.06011 -4.284057,-13.2842 13.149927,4.68001 11.310175,-8.17941 -0.387412,13.95252 z" />
  <path
     style="opacity:0.05;fill:#888a85;stroke:none;stroke-width:11.3968"
     id="path994-2-9"
     d="m 490.13042,447.85826 -26.492,7.80181 -8.59178,26.24643 -15.60643,-22.78449 -27.61685,-0.0607 16.84669,-21.88339 -8.47638,-26.28393 26.01827,9.25981 22.37816,-16.18369 -0.76652,27.60628 z" />
  <path
     style="opacity:0.05;fill:#888a85;stroke:none;stroke-width:9.20248"
     id="path994-2-9-3"
     d="m 474.25984,78.416373 -21.39143,6.2997 -6.93758,21.193137 -12.60168,-18.397737 -22.29971,-0.049 13.60316,-17.67013 -6.8444,-21.22341 21.0089,7.47699 18.06963,-13.067797 -0.61894,22.291167 z" />
  <path
     style="opacity:0.05;fill:#888a85;stroke:none;stroke-width:13.281"
     id="path1084"
     d="m 253.1476,226.42344 -43.75325,-20.89287 -42.01543,24.1984 6.3498,-48.06806 -35.99753,-32.48133 47.67764,-8.81483 19.76773,-44.272974 23.11661,42.620204 48.21466,5.11913 -33.39079,35.15557 z" />
</svg>
